<svg width="16" height="16" viewBox="0 0 16 16" fill="none" xmlns="http://www.w3.org/2000/svg">
<path d="M14.6439 1.67626C12.8903 -0.0395509 10.0869 -0.0391777 8.33371 1.67711L0.98078 9.03006C-0.348777 10.391 -0.323368 12.572 1.03753 13.9015C2.37605 15.2092 4.51375 15.2092 5.85226 13.9015L12.5105 7.24335C13.376 6.37777 13.376 4.97436 12.5105 4.10879C11.6449 3.24322 10.2415 3.24322 9.37589 4.10879L3.00717 10.4775C2.78504 10.7075 2.79142 11.074 3.02142 11.2961C3.2458 11.5128 3.60149 11.5128 3.82587 11.2961L10.1946 4.92745C10.6169 4.52287 11.2872 4.53729 11.6918 4.95961C12.0841 5.36917 12.0841 6.01512 11.6918 6.42469L5.0336 13.0828C4.13413 13.9695 2.68615 13.9591 1.79947 13.0597C0.921752 12.1693 0.921752 10.7391 1.79947 9.84872L9.1524 2.49577C10.4621 1.18555 12.586 1.18518 13.8962 2.49489C15.2064 3.80459 15.2068 5.92848 13.8971 7.2387L6.54414 14.5916C6.30128 14.7996 6.27299 15.1651 6.48098 15.408C6.68896 15.6509 7.05446 15.6792 7.29733 15.4712C7.31999 15.4518 7.34109 15.4307 7.36049 15.408L14.7135 8.05505C16.4557 6.2744 16.4246 3.4185 14.6439 1.67626Z" fill="#B7B7B7"/>
</svg>
