<svg width="21" height="21" viewBox="0 0 21 21" fill="none" xmlns="http://www.w3.org/2000/svg">
<path d="M20.8788 4.3875C20.7586 4.21522 20.5652 4.10873 20.3551 4.09975L7.32856 3.53825C6.9548 3.5219 6.64247 3.81045 6.62649 4.18246C6.61061 4.55434 6.89869 4.86855 7.27066 4.88453L19.4152 5.40805L17.0274 12.8584H6.40101L4.4812 2.40519C4.439 2.17609 4.28171 1.98496 4.06478 1.89985L0.920459 0.664582C0.573915 0.528906 0.182867 0.699123 0.0467686 1.04524C-0.089095 1.39155 0.0810752 1.78284 0.427431 1.91893L3.22323 3.01726L5.17692 13.6539C5.23581 13.9737 5.51449 14.206 5.83974 14.206H6.16382L5.42379 16.2615C5.36185 16.4337 5.38737 16.6249 5.49278 16.7745C5.59805 16.9242 5.76925 17.0132 5.95202 17.0132H6.47108C6.14944 17.3711 5.95202 17.8424 5.95202 18.3608C5.95202 19.4754 6.85898 20.3821 7.97338 20.3821C9.08778 20.3821 9.99474 19.4754 9.99474 18.3608C9.99474 17.8425 9.79732 17.3711 9.47573 17.0132H13.8828C13.561 17.3711 13.3637 17.8424 13.3637 18.3608C13.3637 19.4754 14.2704 20.3821 15.385 20.3821C16.4997 20.3821 17.4064 19.4754 17.4064 18.3608C17.4064 17.8425 17.209 17.3711 16.8875 17.0132H17.5187C17.8289 17.0132 18.0802 16.7618 18.0802 16.4517C18.0802 16.1415 17.8288 15.8902 17.5187 15.8902H6.75094L7.35727 14.2058H17.5187C17.8117 14.2058 18.0709 14.0165 18.1602 13.7377L20.9676 4.97838C21.0321 4.77846 20.999 4.55988 20.8788 4.3875ZM7.97343 19.2594C7.47795 19.2594 7.07502 18.8565 7.07502 18.361C7.07502 17.8655 7.47795 17.4626 7.97343 17.4626C8.4689 17.4626 8.87179 17.8655 8.87179 18.361C8.87179 18.8565 8.4689 19.2594 7.97343 19.2594ZM15.385 19.2594C14.8895 19.2594 14.4867 18.8565 14.4867 18.361C14.4867 17.8655 14.8895 17.4626 15.385 17.4626C15.8805 17.4626 16.2834 17.8655 16.2834 18.361C16.2834 18.8565 15.8805 19.2594 15.385 19.2594Z" fill="white"/>
</svg>
