<svg width="21" height="21" viewBox="0 0 21 21" fill="none" xmlns="http://www.w3.org/2000/svg">
<path d="M18.0269 20.3335H7.56787C6.29559 20.3335 5.26074 19.2987 5.26074 18.0264V7.56738C5.26074 6.2951 6.29559 5.26025 7.56787 5.26025H18.0269C19.2991 5.26025 20.334 6.2951 20.334 7.56738V18.0264C20.334 19.2987 19.2991 20.3335 18.0269 20.3335ZM7.56787 6.79834C7.14382 6.79834 6.79883 7.14333 6.79883 7.56738V18.0264C6.79883 18.4504 7.14382 18.7954 7.56787 18.7954H18.0269C18.4509 18.7954 18.7959 18.4504 18.7959 18.0264V7.56738C18.7959 7.14333 18.4509 6.79834 18.0269 6.79834H7.56787ZM3.72266 14.1812H2.95361C2.52956 14.1812 2.18457 13.8362 2.18457 13.4121V2.95312C2.18457 2.52907 2.52956 2.18408 2.95361 2.18408H13.4126C13.8367 2.18408 14.1816 2.52907 14.1816 2.95312V3.68372H15.7197V2.95312C15.7197 1.68084 14.6849 0.645996 13.4126 0.645996H2.95361C1.68133 0.645996 0.646484 1.68084 0.646484 2.95312V13.4121C0.646484 14.6844 1.68133 15.7192 2.95361 15.7192H3.72266V14.1812Z" fill="#78A1CF"/>
</svg>
