<svg width="34" height="34" viewBox="0 0 34 34" fill="none" xmlns="http://www.w3.org/2000/svg">
<path d="M5.90026 23.1609C5.62826 23.1609 5.35679 23.0573 5.14907 22.8496C4.73416 22.4347 4.73416 21.7621 5.14907 21.3472L21.7528 4.74355C22.1671 4.32865 22.8402 4.32865 23.2551 4.74355C23.67 5.15846 23.67 5.83102 23.2551 6.24593L6.65144 22.8496C6.44426 23.0568 6.17226 23.1609 5.90026 23.1609V23.1609Z" fill="#696969"/>
<path d="M4.25887 30.8125C4.18503 30.8125 4.11012 30.8045 4.03522 30.7885C3.46147 30.6653 3.09597 30.1006 3.21922 29.5268L4.86078 21.8752C4.98403 21.3015 5.5514 20.937 6.1225 21.0592C6.69625 21.1825 7.06175 21.7472 6.9385 22.321L5.29694 29.9725C5.19015 30.4714 4.74922 30.8125 4.25887 30.8125V30.8125Z" fill="#696969"/>
<path d="M11.91 29.1709C11.638 29.1709 11.3666 29.0673 11.1588 28.8596C10.7439 28.4447 10.7439 27.7721 11.1588 27.3572L27.7625 10.7541C28.1769 10.3391 28.85 10.3391 29.2649 10.7541C29.6798 11.169 29.6798 11.8415 29.2649 12.2564L12.6617 28.8596C12.454 29.0673 12.182 29.1709 11.91 29.1709Z" fill="#696969"/>
<path d="M4.25712 30.8125C3.76678 30.8125 3.32637 30.4714 3.21906 29.9726C3.09634 29.3988 3.46131 28.8341 4.03506 28.7109L11.6867 27.0693C12.2609 26.9477 12.8257 27.3121 12.9484 27.8853C13.0711 28.4591 12.7061 29.0238 12.1324 29.147L4.48078 30.7886C4.40587 30.8051 4.33097 30.8125 4.25712 30.8125Z" fill="#696969"/>
<path d="M25.5079 15.5726C25.2359 15.5726 24.9639 15.469 24.7568 15.2613L18.7467 9.2513C18.3318 8.83639 18.3318 8.16383 18.7467 7.74892C19.1611 7.33402 19.8347 7.33402 20.2491 7.74892L26.2591 13.759C26.674 14.1739 26.674 14.8464 26.2591 15.2613C26.0519 15.469 25.7799 15.5726 25.5079 15.5726Z" fill="#696969"/>
<path d="M28.5129 12.5677C28.2409 12.5677 27.9689 12.4641 27.7612 12.2564C27.3463 11.8415 27.3463 11.1689 27.7612 10.7535C28.3525 10.1622 28.6781 9.36158 28.6781 8.49989C28.6781 7.6382 28.3525 6.83761 27.7612 6.24633C27.1694 5.65451 26.3688 5.32886 25.5071 5.32886C24.6454 5.32886 23.8448 5.65451 23.2535 6.24633C22.8392 6.66123 22.1666 6.66176 21.7506 6.24633C21.3357 5.83142 21.3357 5.15886 21.7506 4.74342C22.743 3.75051 24.077 3.20386 25.5071 3.20386C26.9367 3.20386 28.2712 3.75051 29.2636 4.74342C30.2565 5.73579 30.8031 7.06976 30.8031 8.49989C30.8031 9.93001 30.2565 11.264 29.2636 12.2564C29.0569 12.4635 28.7849 12.5677 28.5129 12.5677V12.5677Z" fill="#696969"/>
</svg>
