<svg width="20" height="20" viewBox="0 0 20 20" fill="none" xmlns="http://www.w3.org/2000/svg">
<g clip-path="url(#clip0_1_1974)">
<path d="M19.7527 9.52097L17.6127 8.0123C17.225 7.73898 16.6891 8.0173 16.6891 8.4912V9.41394H6.4141C6.09051 9.41394 5.82812 9.67628 5.82812 9.99991C5.82812 10.3235 6.09051 10.5859 6.4141 10.5859H16.689V11.5085C16.689 11.9856 17.2278 12.2587 17.6126 11.9875L19.7526 10.4788C20.0794 10.2485 20.086 9.75644 19.7527 9.52097Z" fill="#545454"/>
<path d="M16.8153 13.7625C16.5352 13.6005 16.1767 13.6962 16.0146 13.9763C14.6382 16.3559 12.0653 17.9533 9.12512 17.9533C4.73973 17.9533 1.17191 14.3855 1.17191 10.0001C1.17191 5.61473 4.73973 2.04691 9.12512 2.04691C12.0673 2.04691 14.639 3.64586 16.0146 6.02383C16.1766 6.30398 16.5352 6.39957 16.8152 6.23766C17.0954 6.07562 17.1911 5.71715 17.0291 5.43703C15.446 2.70039 12.4894 0.875 9.12512 0.875C4.08164 0.875 0 4.95621 0 10.0001C0 15.0436 4.08121 19.1252 9.12512 19.1252C12.4909 19.1252 15.4467 17.2986 17.0291 14.5631C17.1911 14.283 17.0954 13.9246 16.8153 13.7625Z" fill="#545454"/>
</g>
<defs>
<clipPath id="clip0_1_1974">
<rect width="20" height="20" fill="white"/>
</clipPath>
</defs>
</svg>
