<svg width="53" height="53" viewBox="0 0 53 53" fill="none" xmlns="http://www.w3.org/2000/svg">
<path d="M46.7333 9.38597C46.4562 9.05865 45.9663 9.01807 45.6391 9.29508C45.3119 9.57219 45.2712 10.062 45.5483 10.3892C49.3523 14.8822 51.4473 20.6038 51.4473 26.5C51.4473 40.256 40.256 51.4473 26.5 51.4473C12.744 51.4473 1.55273 40.256 1.55273 26.5C1.55273 12.744 12.744 1.55273 26.5 1.55273C32.6288 1.55273 38.5213 3.79613 43.0919 7.86967C43.412 8.15496 43.9027 8.1267 44.188 7.80663C44.4734 7.48656 44.4451 6.99579 44.1251 6.7105C39.2696 2.38314 33.0103 0 26.5 0C19.4216 0 12.7669 2.75652 7.7616 7.7616C2.75652 12.7669 0 19.4216 0 26.5C0 33.5784 2.75652 40.2332 7.7616 45.2384C12.7669 50.2435 19.4216 53 26.5 53C33.5784 53 40.2332 50.2435 45.2384 45.2384C50.2436 40.2333 53 33.5784 53 26.5C53 20.2368 50.7744 14.159 46.7333 9.38597Z" fill="#78A1CF"/>
<path d="M13.321 8.24296C10.4925 10.2879 8.14508 13.0003 6.5321 16.0868C4.8654 19.2765 3.98438 22.8773 3.98438 26.5C3.98438 32.514 6.32631 38.1678 10.5787 42.4203C14.8313 46.6727 20.4852 49.0147 26.499 49.0147C27.4348 49.0147 28.377 48.9566 29.2991 48.8422C29.7246 48.7893 30.0267 48.4016 29.9741 47.9761C29.9212 47.5505 29.5325 47.2496 29.1079 47.3012C28.249 47.4078 27.3713 47.4619 26.4991 47.4619C14.9407 47.4619 5.53721 38.0585 5.53721 26.5C5.53721 19.7918 8.78719 13.4372 14.2309 9.5012C14.5783 9.24996 14.6563 8.76468 14.4051 8.41718C14.1539 8.06978 13.6687 7.99163 13.321 8.24296Z" fill="#78A1CF"/>
<path d="M32.0355 47.5416C32.1367 47.8775 32.445 48.0943 32.7786 48.0943C32.8527 48.0943 32.9282 48.0835 33.0028 48.0612C37.5378 46.6952 41.6145 43.8499 44.4823 40.0497C47.4472 36.1206 49.0144 31.4353 49.0144 26.5C49.0144 20.4862 46.6725 14.8322 42.4201 10.5797C38.1675 6.32729 32.5137 3.98535 26.4998 3.98535C22.9909 3.98535 19.629 4.77041 16.5077 6.3187C16.1236 6.50917 15.9667 6.97509 16.1572 7.35913C16.3478 7.74318 16.8136 7.90021 17.1977 7.70964C20.1027 6.2687 23.2324 5.53809 26.4998 5.53809C38.0582 5.53809 47.4617 14.9415 47.4617 26.5C47.4617 35.6758 41.3318 43.9306 32.5549 46.5743C32.1444 46.698 31.9118 47.1311 32.0355 47.5416Z" fill="#78A1CF"/>
<path d="M40.9986 20.6192C40.6093 20.4395 40.1481 20.6097 39.9684 20.9989L35.1926 31.3505C35.0131 31.7398 35.183 32.2011 35.5724 32.3807C35.6778 32.4292 35.7883 32.4522 35.8972 32.4522C36.1907 32.4522 36.4717 32.2849 36.6026 32.0009L41.3784 21.6493C41.558 21.2601 41.388 20.7988 40.9986 20.6192Z" fill="#78A1CF"/>
<path d="M34.4667 20.5479C33.1776 20.5479 32.1289 21.7101 32.1289 23.1387C32.1289 24.5674 33.1776 25.7296 34.4667 25.7296C35.7558 25.7296 36.8046 24.5674 36.8046 23.1387C36.8046 21.7101 35.7558 20.5479 34.4667 20.5479ZM34.4667 24.1769C34.0411 24.1769 33.6816 23.7015 33.6816 23.1387C33.6816 22.576 34.0411 22.1006 34.4667 22.1006C34.8923 22.1006 35.2519 22.576 35.2519 23.1387C35.2519 23.7015 34.8923 24.1769 34.4667 24.1769Z" fill="#78A1CF"/>
<path d="M39.6875 29.8612C39.6875 31.2898 40.7362 32.4521 42.0253 32.4521C43.3144 32.4521 44.3632 31.2897 44.3632 29.8612C44.3632 28.4326 43.3144 27.2703 42.0253 27.2703C40.7362 27.2703 39.6875 28.4325 39.6875 29.8612ZM42.0253 28.8229C42.4508 28.8229 42.8105 29.2983 42.8105 29.8611C42.8105 30.4238 42.4508 30.8992 42.0253 30.8992C41.5997 30.8992 41.2402 30.4238 41.2402 29.8611C41.2402 29.2983 41.5996 28.8229 42.0253 28.8229Z" fill="#78A1CF"/>
<path d="M12.0397 32.4521C12.4685 32.4521 12.8161 32.1046 12.8161 31.6758V21.3242C12.8161 20.8955 12.4685 20.5479 12.0397 20.5479H9.82715C9.39839 20.5479 9.05078 20.8955 9.05078 21.3242C9.05078 21.753 9.39839 22.1006 9.82715 22.1006H11.2633V31.6758C11.2633 32.1046 11.6109 32.4521 12.0397 32.4521Z" fill="#78A1CF"/>
<path d="M18.0763 32.4521C20.0903 32.4521 21.7287 30.8137 21.7287 28.7998V24.2003C21.7287 22.1863 20.0903 20.5479 18.0763 20.5479C16.0623 20.5479 14.4238 22.1863 14.4238 24.2003V28.7998C14.4239 30.8137 16.0624 32.4521 18.0763 32.4521ZM15.9767 24.2003C15.9767 23.0425 16.9186 22.1006 18.0764 22.1006C19.2342 22.1006 20.1761 23.0425 20.1761 24.2003V28.7998C20.1761 29.9576 19.2342 30.8994 18.0764 30.8994C16.9186 30.8994 15.9767 29.9575 15.9767 28.7998V24.2003Z" fill="#78A1CF"/>
<path d="M30.6329 24.2003C30.6329 22.1863 28.9945 20.5479 26.9805 20.5479C24.9666 20.5479 23.3281 22.1863 23.3281 24.2003V28.7998C23.3281 30.8137 24.9666 32.4521 26.9805 32.4521C28.9945 32.4521 30.6329 30.8137 30.6329 28.7998V24.2003ZM29.0802 28.7998C29.0802 29.9576 28.1382 30.8994 26.9805 30.8994C25.8227 30.8994 24.8809 29.9575 24.8809 28.7998V24.2003C24.8809 23.0425 25.8227 22.1006 26.9805 22.1006C28.1383 22.1006 29.0802 23.0425 29.0802 24.2003V28.7998Z" fill="#78A1CF"/>
</svg>
