<svg width="53" height="53" viewBox="0 0 53 53" fill="none" xmlns="http://www.w3.org/2000/svg">
<g clip-path="url(#clip0_1_234)">
<path d="M25.6057 20.2086C25.951 20.5365 26.5252 20.4702 26.7876 20.0743L31.9549 12.2759C32.1919 11.9184 32.094 11.4364 31.7366 11.1995C31.3795 10.9629 30.8975 11.0608 30.6606 11.4178L26.004 18.4456L23.4165 15.9887C23.1056 15.6935 22.6143 15.7064 22.3187 16.0174C22.0235 16.3284 22.0364 16.8196 22.3474 17.1148C22.347 17.1148 25.6029 20.2061 25.6057 20.2086Z" fill="#78A1CF"/>
<path d="M26.1358 32.0502C26.2842 32.1182 26.4483 32.1542 26.6117 32.1542H26.6182C26.7844 32.1533 26.951 32.1153 27.0998 32.0442C38.9054 26.4297 40.9062 14.3159 41.2377 10.7369C41.3138 9.91971 40.8536 9.15871 40.093 8.84331C37.7429 7.8676 36.1453 5.68568 35.9237 3.14914C35.8553 2.36832 35.1881 1.75977 34.4021 1.75977H34.3928L18.4877 1.85317C17.6859 1.85762 17.0345 2.46699 16.973 3.27045C16.7773 5.8078 15.2031 8.00548 12.8647 9.00586C12.1118 9.32773 11.663 10.0928 11.7487 10.9096C12.1223 14.4845 14.265 26.5744 26.1358 32.0502ZM13.4753 10.4332C16.3426 9.20723 18.2742 6.51542 18.5197 3.4055L34.379 3.3125C34.6609 6.41555 36.62 9.08269 39.4978 10.2772C39.6264 10.3309 39.7044 10.4579 39.6919 10.5938C39.3805 13.9479 37.5176 25.2574 26.6089 30.5573C15.6374 25.3864 13.6435 14.0988 13.2926 10.7482C13.2784 10.6128 13.352 10.4862 13.4753 10.4332Z" fill="#78A1CF"/>
<path d="M15.413 14.7373C15.5068 15.0826 15.9447 15.3988 16.3661 15.2827C16.7793 15.1687 17.024 14.7437 16.9115 14.3301C16.7138 13.6014 16.5476 12.8627 16.417 12.1308C18.5261 10.7564 20.0914 8.70505 20.8593 6.30923L32.0713 6.24332C32.8671 8.62943 34.4562 10.6629 36.5815 12.0123C36.4598 12.7462 36.3021 13.4874 36.1125 14.2189C36.0049 14.6341 36.2544 15.0579 36.6693 15.1655C37.085 15.273 37.5083 15.0235 37.6159 14.6083C37.8383 13.7494 38.0194 12.8776 38.1537 12.0171C38.2289 11.5364 38.0089 11.0637 37.594 10.813C35.6143 9.61728 34.1509 7.74146 33.4736 5.53124C33.3212 5.03429 32.8525 4.68896 32.3325 4.68896H32.3253L20.5868 4.75771C20.0635 4.76094 19.5953 5.11314 19.4485 5.61373C18.7975 7.83164 17.3559 9.72443 15.3904 10.9436C14.9783 11.1987 14.7644 11.6738 14.8449 12.1542C14.9896 13.0127 15.1805 13.8816 15.413 14.7373Z" fill="#78A1CF"/>
<path d="M36.0478 17.0392C35.6515 16.875 35.1979 17.0643 35.0341 17.4606C33.24 21.809 30.3997 25.1151 26.5899 27.2909C22.7505 25.1571 19.8691 21.879 18.0244 17.5443C17.8562 17.15 17.4 16.9664 17.0058 17.1342C16.6111 17.3021 16.4276 17.7582 16.5954 18.1524C18.6087 22.8826 21.7805 26.4486 26.0226 28.7507C26.2013 28.8481 26.397 28.8962 26.5923 28.8962C26.7925 28.8962 26.9922 28.8457 27.1742 28.7442C31.3844 26.3953 34.5117 22.7981 36.4696 18.0525C36.6333 17.6563 36.4445 17.2026 36.0478 17.0392Z" fill="#78A1CF"/>
<path d="M4.98118 41.4863C3.46686 41.4863 2.23438 42.7184 2.23438 44.2331C2.23438 45.7479 3.46686 46.9799 4.98118 46.9799C6.4959 46.9799 7.72838 45.7479 7.72838 44.2331C7.72838 42.7184 6.4963 41.4863 4.98118 41.4863ZM4.98118 45.4272C4.32288 45.4272 3.78711 44.8918 3.78711 44.2331C3.78711 43.5748 4.32288 43.0391 4.98118 43.0391C5.63988 43.0391 6.17565 43.5748 6.17565 44.2331C6.17565 44.8918 5.63988 45.4272 4.98118 45.4272Z" fill="#78A1CF"/>
<path d="M52.4432 33.8856C51.4481 32.4234 49.4445 32.036 47.9771 33.0219L37.8277 39.8147L35.6612 39.693L35.6058 39.1382C35.3898 36.9656 33.7291 35.2345 31.5674 34.9288C31.5537 34.9268 31.5403 34.9252 31.5266 34.924L20.5903 33.9656C20.2203 33.9078 19.036 33.5677 15.7817 31.7012C14.0903 30.7312 12.1845 30.1837 10.2485 30.1093V28.0782C10.2485 27.0588 9.41952 26.2299 8.40014 26.2299H1.84832C0.829339 26.2299 0 27.0592 0 28.0782V48.0822C0 49.1012 0.829339 49.9305 1.84832 49.9305H8.40014C9.41912 49.9305 10.2485 49.1012 10.2485 48.0822V47.531L19.8083 51.1512C19.8293 51.1593 20.6057 51.4497 22.0331 51.315C22.0371 51.3146 37.9175 49.0251 37.9175 49.0251C37.9215 49.0247 37.9252 49.0239 37.9292 49.0231C39.2862 48.8068 40.566 48.233 41.6307 47.3648C41.6404 47.3568 41.6497 47.3487 41.659 47.3406L51.918 38.1135C53.127 37.04 53.353 35.2224 52.4432 33.8856ZM50.8832 36.9559L40.6352 46.1732C39.7868 46.861 38.7687 47.3159 37.6898 47.489L21.8171 49.7772C21.8135 49.7776 21.8083 49.7785 21.8034 49.7793C21.801 49.7797 21.7981 49.7801 21.7957 49.7805C21.321 49.8553 20.8265 49.8237 20.3255 49.6867L10.2485 45.8707V37.0044C10.2485 36.5754 9.90071 36.228 9.47209 36.228C9.04307 36.228 8.69572 36.5754 8.69572 37.0044V48.0822C8.69572 48.2451 8.56309 48.3778 8.40014 48.3778H1.84832C1.68536 48.3778 1.55274 48.2451 1.55274 48.0822V28.0782C1.55274 27.9152 1.68536 27.7826 1.84832 27.7826H8.40014C8.56309 27.7826 8.69572 27.9152 8.69572 28.0782V33.4974C8.69572 33.9264 9.04347 34.2738 9.47209 34.2738C9.90112 34.2738 10.2485 33.926 10.2485 33.4974V31.6636C11.914 31.7372 13.5525 32.2127 15.009 33.0485C18.9341 35.2996 20.0303 35.4549 20.3906 35.5058C20.4043 35.5079 20.4177 35.5091 20.4314 35.5107L31.3689 36.469C32.8108 36.6821 33.9164 37.8402 34.0607 39.2918L34.102 39.7055L19.4589 40.6096C19.4488 40.6088 19.4387 40.608 19.4298 40.6072C18.9551 40.5643 18.5265 40.3399 18.222 39.9752C17.9474 39.6456 17.4578 39.6012 17.1286 39.8761C16.7991 40.1507 16.7546 40.6404 17.0295 40.9695C17.5993 41.6529 18.4032 42.0617 19.2915 42.1539C19.7711 42.204 34.956 41.2085 34.956 41.2085L38 41.3795C38.1682 41.3892 38.3352 41.3431 38.4751 41.2493L48.842 34.3114C49.6034 33.7998 50.643 34.0004 51.1594 34.759C51.6313 35.4529 51.514 36.3958 50.8832 36.9559Z" fill="#78A1CF"/>
</g>
<defs>
<clipPath id="clip0_1_234">
<rect width="53" height="53" fill="white"/>
</clipPath>
</defs>
</svg>
