<svg width="18" height="18" viewBox="0 0 18 18" fill="none" xmlns="http://www.w3.org/2000/svg">
<path d="M9 18C10.78 18 12.5201 17.4722 14.0001 16.4832C15.4802 15.4943 16.6337 14.0887 17.3149 12.4442C17.9961 10.7996 18.1743 8.99002 17.8271 7.24419C17.4798 5.49836 16.6226 3.89471 15.364 2.63604C14.1053 1.37737 12.5016 0.520203 10.7558 0.172936C9.00998 -0.17433 7.20038 0.00389964 5.55585 0.685088C3.91131 1.36628 2.50571 2.51983 1.51677 3.99987C0.527841 5.47991 0 7.21997 0 9C0 11.3869 0.948211 13.6761 2.63604 15.364C4.32387 17.0518 6.61305 18 9 18ZM9 3.372C9.23734 3.372 9.46934 3.44238 9.66668 3.57424C9.86402 3.7061 10.0178 3.89351 10.1087 4.11278C10.1995 4.33205 10.2232 4.57333 10.1769 4.80611C10.1306 5.03889 10.0163 5.25271 9.84853 5.42053C9.6807 5.58835 9.46688 5.70264 9.23411 5.74894C9.00133 5.79525 8.76005 5.77148 8.54078 5.68066C8.32151 5.58983 8.13409 5.43603 8.00224 5.23869C7.87038 5.04135 7.8 4.80934 7.8 4.572C7.8 4.25374 7.92643 3.94852 8.15147 3.72347C8.37651 3.49843 8.68174 3.372 9 3.372ZM7.8 9C7.8 8.68174 7.92643 8.37652 8.15147 8.15147C8.37651 7.92643 8.68174 7.8 9 7.8C9.31826 7.8 9.62348 7.92643 9.84853 8.15147C10.0736 8.37652 10.2 8.68174 10.2 9V13.8C10.2 14.1183 10.0736 14.4235 9.84853 14.6485C9.62348 14.8736 9.31826 15 9 15C8.68174 15 8.37651 14.8736 8.15147 14.6485C7.92643 14.4235 7.8 14.1183 7.8 13.8V9Z" fill="#8D8D8D"/>
</svg>
