<svg width="20" height="20" viewBox="0 0 20 20" fill="none" xmlns="http://www.w3.org/2000/svg">
<path d="M10.0009 13.0807C11.7014 13.0807 13.0799 11.7021 13.0799 10.0016C13.0799 8.30114 11.7014 6.92261 10.0009 6.92261C8.30041 6.92261 6.92188 8.30114 6.92188 10.0016C6.92188 11.7021 8.30041 13.0807 10.0009 13.0807Z" fill="#696969"/>
<path d="M19.6932 9.14873C17.3265 6.28869 13.7438 3.53564 10 3.53564C6.25555 3.53564 2.67205 6.29061 0.306845 9.14873C-0.102282 9.64291 -0.102282 10.3603 0.306845 10.8545C0.901484 11.5731 2.14811 12.9602 3.8131 14.1722C8.00632 17.2247 11.9845 17.2315 16.187 14.1722C17.852 12.9602 19.0986 11.5731 19.6932 10.8545C20.1012 10.3613 20.1033 9.64453 19.6932 9.14873V9.14873ZM10 5.69097C12.3771 5.69097 14.3107 7.6246 14.3107 10.0016C14.3107 12.3786 12.3771 14.3123 10 14.3123C7.62302 14.3123 5.68939 12.3786 5.68939 10.0016C5.68939 7.6246 7.62302 5.69097 10 5.69097Z" fill="#696969"/>
</svg>
