<svg width="22" height="22" viewBox="0 0 22 22" fill="none" xmlns="http://www.w3.org/2000/svg">
<g clip-path="url(#clip0_4_3110)">
<path d="M0.659595 9.66577C0.300161 9.66577 0.00878906 9.95719 0.00878906 10.3166V19.8753C0.00878906 20.2348 0.300204 20.5261 0.659595 20.5261H4.58063V9.66577H0.659595Z" fill="#00870D"/>
<path d="M21.9917 13.2596C21.9917 12.4335 21.5478 11.709 20.886 11.3122C21.1395 10.9461 21.2882 10.5019 21.2882 10.0238C21.2882 8.77287 20.2705 7.75511 19.0195 7.75511H14.2303C14.3771 7.08995 14.5778 6.09183 14.7176 5.04695C15.0814 2.32784 14.8328 0.819849 13.9353 0.301258C13.3757 -0.021997 12.7725 -0.0875675 12.2365 0.116449C11.8225 0.274144 11.2634 0.661852 10.9448 1.6134L9.68608 4.90915C9.04795 6.48512 7.09377 8.13964 5.88184 9.05449V20.8141C8.12799 21.6011 10.4719 22.0001 12.8631 22.0001H18.0815C19.3324 22.0001 20.3502 20.9823 20.3502 19.7313C20.3502 19.2933 20.2254 18.8838 20.0094 18.5366C20.7657 18.1683 21.2882 17.3917 21.2882 16.4955C21.2882 16.0173 21.1394 15.5733 20.8859 15.2071C21.5478 14.8103 21.9917 14.0858 21.9917 13.2596Z" fill="#00870D"/>
</g>
<defs>
<clipPath id="clip0_4_3110">
<rect width="22" height="22" fill="white"/>
</clipPath>
</defs>
</svg>
