<svg width="29" height="53" viewBox="0 0 29 53" fill="none" xmlns="http://www.w3.org/2000/svg">
<path d="M13.7594 17.1676C13.3552 16.7634 12.6997 16.7634 12.2954 17.1676C11.8911 17.5718 11.8912 18.2273 12.2954 18.6316C12.6268 18.963 13.0276 19.1992 13.4649 19.3278V19.6683C13.4649 20.24 13.9284 20.7034 14.5001 20.7034C15.0718 20.7034 15.5353 20.24 15.5353 19.6683V19.1224C15.7769 18.9947 16.0007 18.8303 16.1993 18.6315C17.2756 17.5553 17.2756 15.804 16.1993 14.7276L14.2647 12.7931C14.1344 12.6627 14.0626 12.4895 14.0626 12.3051C14.0626 12.1207 14.1344 11.9474 14.2648 11.8171C14.3951 11.6868 14.5684 11.6149 14.7528 11.6149C14.9371 11.6149 15.1104 11.6867 15.2408 11.8171C15.6451 12.2214 16.3004 12.2215 16.7048 11.8171C17.109 11.4129 17.109 10.7574 16.7048 10.3532C16.3736 10.0218 15.9727 9.78558 15.5354 9.65691V9.31654C15.5354 8.74482 15.0718 8.28137 14.5002 8.28137C13.9286 8.28137 13.465 8.74482 13.465 9.31654V9.86229C13.2234 9.99003 12.9996 10.1544 12.8009 10.3532C12.2795 10.8746 11.9923 11.5677 11.9923 12.3051C11.9923 13.0425 12.2795 13.7357 12.8009 14.257L14.7354 16.1915C14.8658 16.3219 14.9376 16.4952 14.9376 16.6795C14.9376 16.8639 14.8658 17.0372 14.7354 17.1675C14.4665 17.4369 14.0286 17.4366 13.7594 17.1676Z" fill="#78A1CF"/>
<path d="M14.5002 24.8442C20.2081 24.8442 24.8519 20.2004 24.8519 14.4925C24.8519 8.78443 20.2081 4.14075 14.5002 4.14075C8.79222 4.14075 4.14844 8.78453 4.14844 14.4925C4.14844 20.2005 8.79222 24.8442 14.5002 24.8442ZM14.5002 6.21109C19.0666 6.21109 22.7816 9.92612 22.7816 14.4925C22.7816 19.0588 19.0665 22.7739 14.5002 22.7739C9.93381 22.7739 6.21878 19.0588 6.21878 14.4925C6.21878 9.92612 9.93381 6.21109 14.5002 6.21109Z" fill="#78A1CF"/>
<path d="M26.2589 36.4246H24.8514V24.6239C27.4112 22.0089 28.9921 18.4321 28.9921 14.4924C28.9921 6.5013 22.4908 0 14.4997 0C12.3825 0 10.3404 0.447402 8.42996 1.32968C7.91092 1.56942 7.68453 2.18452 7.92417 2.70346C8.16381 3.22249 8.77902 3.44888 9.29795 3.20924C10.9345 2.45357 12.6845 2.07034 14.4998 2.07034C21.3492 2.07034 26.9219 7.64289 26.9219 14.4924C26.9219 21.3419 21.3493 26.9145 14.4998 26.9145C7.65026 26.9145 2.07772 21.3419 2.07772 14.4924C2.07772 12.6772 2.46084 10.9274 3.21631 9.2915C3.45595 8.77247 3.22956 8.15737 2.71052 7.91772C2.19159 7.67818 1.57639 7.90447 1.33675 8.42351C0.454677 10.3335 0.00737847 12.3754 0.00737847 14.4924C0.00737847 18.4321 1.58829 22.0089 4.14807 24.6239V36.4246H2.74261C1.57504 36.4246 0.565958 37.1351 0.171971 38.2345C-0.219945 39.3282 0.0951614 40.5077 0.974437 41.2514L12.6279 52.2586C13.1533 52.7529 13.827 53 14.5009 53C15.1753 53 15.8497 52.7524 16.375 52.2572L28.1318 41.1525C29.2294 40.1198 29.2822 38.3867 28.2496 37.289C27.7328 36.7396 27.0074 36.4246 26.2589 36.4246ZM26.7117 39.646L14.9542 50.7513C14.7002 50.9907 14.3015 50.9904 14.048 50.752L2.37316 39.7246C2.35587 39.7084 2.33817 39.6927 2.31975 39.6776C1.98601 39.4032 2.08321 39.0382 2.12099 38.9329C2.1682 38.8013 2.32327 38.495 2.74261 38.495H5.18324C5.75497 38.495 6.21841 38.0315 6.21841 37.4598V26.3786C8.56753 28.0202 11.4229 28.9848 14.4998 28.9848C17.5766 28.9848 20.4321 28.0203 22.7812 26.3787V37.4598C22.7812 38.0315 23.2447 38.495 23.8163 38.495H26.259C26.4414 38.495 26.6129 38.5704 26.7418 38.7076C26.9922 38.9738 26.9793 39.3941 26.7117 39.646Z" fill="#78A1CF"/>
<path d="M4.98465 6.01189C5.23319 6.01189 5.48266 5.92297 5.681 5.74254C6.10397 5.35798 6.13523 4.70324 5.75067 4.28028C5.36611 3.85721 4.71137 3.82605 4.2884 4.21061L4.28789 4.21113C3.86492 4.59569 3.83397 5.25012 4.21853 5.67319C4.42266 5.89792 4.70309 6.01189 4.98465 6.01189Z" fill="#78A1CF"/>
</svg>
