<svg width="28" height="28" viewBox="0 0 28 28" fill="none" xmlns="http://www.w3.org/2000/svg">
<path d="M23.8995 4.10052C21.2552 1.45627 17.7395 0 14 0C10.2605 0 6.74477 1.45627 4.10047 4.10052C1.45627 6.74477 0 10.2605 0 14C0 17.7395 1.45627 21.2552 4.10047 23.8995C6.74477 26.5437 10.2605 28 14 28C17.7395 28 21.2552 26.5437 23.8995 23.8995C26.5437 21.2552 28 17.7395 28 14C28 10.2605 26.5437 6.74477 23.8995 4.10052ZM14 26.3594C10.3431 26.3594 7.05266 24.7624 4.78778 22.2299C6.19188 18.5075 9.78622 15.8594 14 15.8594C11.2817 15.8594 9.07812 13.6558 9.07812 10.9375C9.07812 8.2192 11.2817 6.01562 14 6.01562C16.7183 6.01562 18.9219 8.2192 18.9219 10.9375C18.9219 13.6558 16.7183 15.8594 14 15.8594C18.2138 15.8594 21.8081 18.5075 23.2122 22.2299C20.9473 24.7624 17.6569 26.3594 14 26.3594Z" fill="white"/>
</svg>
