<svg width="28" height="26" viewBox="0 0 28 26" fill="none" xmlns="http://www.w3.org/2000/svg">
<mask id="path-1-inside-1_1_131" fill="white">
<path d="M19.9062 0.75C18.7989 0.751288 17.7035 0.979436 16.6877 1.42037C15.6719 1.86131 14.7572 2.50568 14 3.31375C12.8904 2.12948 11.4504 1.30614 9.86691 0.950603C8.28345 0.595066 6.62968 0.723756 5.12028 1.31997C3.61088 1.91618 2.31558 2.95238 1.40251 4.29404C0.489448 5.6357 0.000799006 7.22087 0 8.84375C0 16.9025 12.9981 24.8125 13.5625 25.1231C13.6986 25.2049 13.8544 25.2481 14.0131 25.2481C14.1719 25.2481 14.3277 25.2049 14.4638 25.1231C15.0019 24.8125 28 16.9025 28 8.84375C27.9977 6.69787 27.1442 4.64053 25.6268 3.12316C24.1095 1.60579 22.0521 0.752316 19.9062 0.75V0.75ZM14 23.3425C11.7381 21.8988 1.75 15.1525 1.75 8.84375C1.75112 7.49623 2.18131 6.18407 2.97822 5.09744C3.77512 4.01081 4.89734 3.20616 6.18224 2.80013C7.46713 2.39409 8.84794 2.40775 10.1246 2.83913C11.4012 3.27051 12.5072 4.09719 13.2825 5.19938C13.3633 5.31402 13.4704 5.40757 13.5949 5.47215C13.7194 5.53673 13.8576 5.57044 13.9978 5.57044C14.1381 5.57044 14.2762 5.53673 14.4007 5.47215C14.5252 5.40757 14.6324 5.31402 14.7131 5.19938C15.4877 4.0953 16.5941 3.26683 17.8715 2.83423C19.149 2.40164 20.531 2.38744 21.8171 2.79369C23.1032 3.19995 24.2263 4.00551 25.0234 5.09344C25.8205 6.18137 26.2502 7.49504 26.25 8.84375C26.25 15.1481 16.2619 21.8944 14 23.3425Z"/>
</mask>
<path d="M14 3.31375L8.16216 8.78364L13.9998 15.014L19.8377 8.78379L14 3.31375ZM0 8.84375L-8 8.83981V8.84375H0ZM13.5625 25.1231L17.6825 18.2656L17.5526 18.1876L17.4199 18.1145L13.5625 25.1231ZM14.4638 25.1231L10.4643 18.1946L10.4037 18.2296L10.3438 18.2656L14.4638 25.1231ZM28 8.84375H36L36 8.83512L28 8.84375ZM14 23.3425L9.69572 30.0859L14.0065 32.8375L18.3135 30.08L14 23.3425ZM1.75 8.84375L-6.25 8.83709V8.84375H1.75ZM13.2825 5.19938L6.73905 9.8019L6.7425 9.8068L13.2825 5.19938ZM14.7131 5.19938L21.2531 9.8068L21.2576 9.80043L21.2621 9.79405L14.7131 5.19938ZM26.25 8.84375L18.25 8.84256V8.84375H26.25ZM19.8969 -7.24999C17.6968 -7.24744 15.5205 -6.79415 13.5023 -5.91809L19.8731 8.75883C19.8865 8.75302 19.901 8.75001 19.9156 8.74999L19.8969 -7.24999ZM13.5023 -5.91809C11.484 -5.04203 9.66668 -3.76178 8.16231 -2.15629L19.8377 8.78379C19.8477 8.77314 19.8597 8.76464 19.8731 8.75883L13.5023 -5.91809ZM19.8378 -2.15613C17.6314 -4.51095 14.7681 -6.1481 11.6195 -6.85506L8.11429 8.75626C8.13263 8.76038 8.14931 8.76992 8.16216 8.78364L19.8378 -2.15613ZM11.6195 -6.85506C8.47095 -7.56201 5.18257 -7.30612 2.18125 -6.1206L8.05931 8.76054C8.07679 8.75363 8.09595 8.75214 8.11429 8.75626L11.6195 -6.85506ZM2.18125 -6.1206C-0.820056 -4.93509 -3.39567 -2.8747 -5.21122 -0.20691L8.01624 8.79499C8.02682 8.77945 8.04182 8.76745 8.05931 8.76054L2.18125 -6.1206ZM-5.21122 -0.20691C-7.02677 2.46088 -7.99841 5.61284 -8 8.83981L8 8.84769C8.00001 8.82889 8.00567 8.81053 8.01624 8.79499L-5.21122 -0.20691ZM-8 8.84375C-8 12.9854 -6.35531 16.5191 -4.65864 19.1174C-2.93057 21.7639 -0.763897 24.0307 1.18294 25.8037C5.03567 29.3125 8.95833 31.7207 9.70506 32.1317L17.4199 18.1145C17.6023 18.2149 14.7437 16.5128 11.9563 13.9743C10.583 12.7236 9.46491 11.4825 8.73819 10.3696C7.98007 9.20857 8 8.7315 8 8.84375H-8ZM9.4425 31.9806C10.8228 32.8099 12.4028 33.2481 14.0131 33.2481V17.2481C15.3059 17.2481 16.5744 17.5998 17.6825 18.2656L9.4425 31.9806ZM14.0131 33.2481C15.6235 33.2481 17.2034 32.8099 18.5838 31.9806L10.3438 18.2656C11.4519 17.5998 12.7203 17.2481 14.0131 17.2481V33.2481ZM18.4632 32.0517C19.0503 31.7128 22.9505 29.3315 26.8232 25.801C28.7674 24.0287 30.9326 21.7623 32.6597 19.1164C34.3554 16.5187 36 12.9852 36 8.84375H20C20 8.73167 20.0198 9.20897 19.2616 10.3706C18.5347 11.4841 17.4168 12.7256 16.0441 13.9769C13.2832 16.4938 10.4153 18.2229 10.4643 18.1946L18.4632 32.0517ZM36 8.83512C35.9954 4.57049 34.2992 0.481856 31.2837 -2.53369L19.97 8.78002C19.9892 8.79921 20 8.82524 20 8.85239L36 8.83512ZM31.2837 -2.53369C28.2681 -5.54924 24.1795 -7.24539 19.9149 -7.25L19.8976 8.75C19.9248 8.75002 19.9508 8.76082 19.97 8.78002L31.2837 -2.53369ZM18.3043 16.5991C17.3526 15.9917 14.7869 14.2671 12.553 12.133C11.4363 11.0661 10.6133 10.0946 10.1144 9.30288C9.58184 8.45764 9.75 8.34789 9.75 8.84375H-6.25C-6.25 12.494 -4.83332 15.5933 -3.42245 17.8324C-1.97788 20.125 -0.162448 22.1133 1.50058 23.702C4.82622 26.8792 8.38554 29.2496 9.69572 30.0859L18.3043 16.5991ZM9.75 8.85042C9.7497 9.20223 9.63739 9.54482 9.42933 9.82852L-3.4729 0.366355C-5.27477 2.82332 -6.24746 5.79022 -6.25 8.83709L9.75 8.85042ZM9.42933 9.82852C9.22127 10.1122 8.92828 10.3223 8.59281 10.4283L3.77166 -4.82805C0.866408 -3.90997 -1.67103 -2.0906 -3.4729 0.366355L9.42933 9.82852ZM8.59281 10.4283C8.25735 10.5343 7.89684 10.5308 7.56354 10.4181L12.6856 -4.73987C9.79905 -5.71525 6.67692 -5.74614 3.77166 -4.82805L8.59281 10.4283ZM7.56354 10.4181C7.23023 10.3055 6.94145 10.0897 6.73905 9.8019L19.826 0.596849C18.073 -1.89528 15.5721 -3.76448 12.6856 -4.73987L7.56354 10.4181ZM6.7425 9.8068C7.56172 10.9696 8.64844 11.9185 9.91111 12.5735L17.2787 -1.62924C18.2924 -1.10339 19.1648 -0.341599 19.8225 0.591947L6.7425 9.8068ZM9.91111 12.5735C11.1738 13.2285 12.5754 13.5704 13.9978 13.5704V-2.42956C15.1398 -2.42956 16.265 -2.15508 17.2787 -1.62924L9.91111 12.5735ZM13.9978 13.5704C15.4203 13.5704 16.8219 13.2285 18.0845 12.5735L10.7169 -1.62924C11.7306 -2.15507 12.8558 -2.42956 13.9978 -2.42956V13.5704ZM18.0845 12.5735C19.3472 11.9186 20.4339 10.9697 21.2531 9.8068L8.17313 0.591947C8.83082 -0.341616 9.70327 -1.1034 10.7169 -1.62924L18.0845 12.5735ZM21.2621 9.79405C21.0599 10.0823 20.771 10.2986 20.4375 10.4116L15.3055 -4.74309C12.4171 -3.76496 9.91561 -1.89171 8.16416 0.604699L21.2621 9.79405ZM20.4375 10.4116C20.104 10.5245 19.7431 10.5282 19.4074 10.4221L24.2268 -4.83475C21.3189 -5.75333 18.194 -5.72122 15.3055 -4.74309L20.4375 10.4116ZM19.4074 10.4221C19.0716 10.3161 18.7784 10.1057 18.5702 9.82171L31.4766 0.365176C29.6742 -2.09472 27.1348 -3.91617 24.2268 -4.83475L19.4074 10.4221ZM18.5702 9.82171C18.3621 9.53767 18.2499 9.19469 18.25 8.84256L34.25 8.84494C34.2505 5.7954 33.279 2.82508 31.4766 0.365176L18.5702 9.82171ZM18.25 8.84375C18.25 8.34559 18.4191 8.45403 17.8863 9.29934C17.3873 10.0909 16.5642 11.0624 15.447 12.1297C13.2126 14.2643 10.6462 15.9906 9.68646 16.605L18.3135 30.08C19.6156 29.2463 23.1743 26.8754 26.4994 23.6988C28.162 22.1104 29.9773 20.1228 31.4218 17.8311C32.8324 15.5931 34.25 12.4941 34.25 8.84375H18.25Z" fill="#78A1CF" mask="url(#path-1-inside-1_1_131)"/>
</svg>
