<svg width="28" height="28" viewBox="0 0 28 28" fill="none" xmlns="http://www.w3.org/2000/svg">
<path d="M19.331 12.5248L19.3309 12.5249L14.408 16.5622L13.5909 17.2323V16.1756V13.6166C13.5906 13.6158 13.5899 13.6144 13.5884 13.6123C13.5843 13.6065 13.5737 13.5955 13.5524 13.5868L13.5523 13.5868C13.5036 13.567 13.4492 13.5793 13.4218 13.6018C13.4217 13.6018 13.4217 13.6018 13.4217 13.6018L7.51269 18.4479L7.51266 18.4479C7.50399 18.4551 7.50115 18.4601 7.50047 18.4614C7.50045 18.4615 7.50043 18.4615 7.50041 18.4616C7.50061 18.4619 7.50088 18.4624 7.50123 18.4629C7.50218 18.4644 7.50403 18.4669 7.50736 18.4703C7.5213 18.4844 7.54994 18.5 7.59112 18.5C7.6259 18.5 7.65275 18.4886 7.66912 18.4752L7.66913 18.4752L12.592 14.4379L13.4091 13.7678V14.8245V17.3835C13.4094 17.3842 13.4101 17.3856 13.4116 17.3877C13.4157 17.3935 13.4263 17.4045 13.4477 17.4132L13.4477 17.4132C13.4964 17.433 13.5508 17.4207 13.5783 17.3982L19.331 12.5248ZM19.331 12.5248C19.3486 12.5103 19.3784 12.4984 19.4161 12.5002C19.4539 12.502 19.4796 12.5165 19.4925 12.5297L19.4926 12.5297M19.331 12.5248L19.4926 12.5297M19.4926 12.5297C19.4959 12.5331 19.4978 12.5357 19.4988 12.5372M19.4926 12.5297L19.4988 12.5372M19.4873 12.5522L13.5783 17.3982L19.4873 12.5522ZM19.4873 12.5522C19.4873 12.5522 19.4873 12.5522 19.4873 12.5522C19.496 12.545 19.4988 12.54 19.4995 12.5386C19.4996 12.5386 19.4996 12.5386 19.4996 12.5385M19.4873 12.5522L19.4996 12.5385M19.4988 12.5372C19.4991 12.5377 19.4994 12.5382 19.4996 12.5385M19.4988 12.5372L19.4996 12.5385" stroke="#78A1CF"/>
<path d="M15.6775 5.63636L16.5215 4.78447L18.449 2.83873C18.4845 2.80291 18.4846 2.74281 18.449 2.70682C18.4161 2.67355 18.3647 2.67346 18.3315 2.70678L15.6775 5.63636ZM15.6775 5.63636H16.8767H22.7805C24.278 5.63636 25.5 6.86316 25.5 8.38636V23.75C25.5 25.2733 24.278 26.5 22.7805 26.5H5.21951C3.72203 26.5 2.5 25.2733 2.5 23.75V8.38636C2.5 6.86316 3.72204 5.63636 5.21951 5.63636H13.7573H15.2038L14.0661 4.74309L10.1445 1.6641L10.1445 1.66409C10.106 1.63387 10.0975 1.57451 10.1291 1.53335C10.1587 1.49497 10.2101 1.48974 10.2458 1.51777C10.2458 1.51777 10.2458 1.51777 10.2458 1.51778L15.1061 5.33386L15.4565 5.609L15.7701 5.29248L18.3315 2.70687L15.6775 5.63636ZM22.7805 26.3182C24.1926 26.3182 25.3293 25.1639 25.3293 23.75V8.38636C25.3293 6.97245 24.1926 5.81818 22.7805 5.81818H15.4639H15.4633H15.4626H5.21951C3.80743 5.81818 2.67073 6.97245 2.67073 8.38636V23.75C2.67073 25.1639 3.80743 26.3182 5.21951 26.3182H22.7805Z" stroke="#78A1CF"/>
</svg>
