<svg width="26" height="28" viewBox="0 0 26 28" fill="none" xmlns="http://www.w3.org/2000/svg">
<path d="M21.4902 10.9156C22.8552 9.78345 23.7261 8.07529 23.7261 6.16746C23.7261 2.76688 20.9594 0.000244141 17.5588 0.000244141C14.1582 0.000244141 11.3916 2.76688 11.3916 6.16746C11.3916 6.61196 11.4393 7.04547 11.5291 7.46355C11.1779 7.40121 10.8166 7.36856 10.4478 7.36856C7.04714 7.36856 4.28055 10.1352 4.28055 13.5358C4.28055 15.4434 5.15134 17.1514 6.51613 18.2836C2.69823 19.8402 0 23.592 0 27.9628H2.18799C2.18799 23.4083 5.89329 19.7031 10.4477 19.7031C13.8484 19.7031 16.6149 16.9364 16.6149 13.5358C16.6149 13.0913 16.5672 12.6578 16.4775 12.2397C16.8287 12.302 17.1899 12.3347 17.5587 12.3347C20.2427 12.3347 22.6308 13.6222 24.1404 15.6113L25.623 13.9605C24.5272 12.6306 23.1092 11.5759 21.4902 10.9156ZM10.4478 17.515C8.25366 17.515 6.46855 15.7299 6.46855 13.5358C6.46855 11.3416 8.25366 9.55655 10.4478 9.55655C12.6419 9.55655 14.427 11.3417 14.427 13.5358C14.427 15.7299 12.6419 17.515 10.4478 17.515ZM17.5588 10.1466C15.3647 10.1466 13.5796 8.36158 13.5796 6.16741C13.5796 3.97324 15.3647 2.18824 17.5588 2.18824C19.7529 2.18824 21.538 3.97329 21.538 6.16746C21.538 8.36169 19.753 10.1466 17.5588 10.1466Z" fill="#78A1CF"/>
</svg>
