<svg width="28" height="26" viewBox="0 0 28 26" fill="none" xmlns="http://www.w3.org/2000/svg">
<path d="M18.2578 5.5625C18.2578 7.90983 16.3473 9.82031 14 9.82031C11.6527 9.82031 9.74219 7.90983 9.74219 5.5625C9.74219 3.21517 11.6527 1.30469 14 1.30469C16.3473 1.30469 18.2578 3.21517 18.2578 5.5625ZM17.6172 5.5625C17.6172 3.56753 15.995 1.94531 14 1.94531C12.005 1.94531 10.3828 3.56753 10.3828 5.5625C10.3828 7.55747 12.005 9.17969 14 9.17969C15.995 9.17969 17.6172 7.55747 17.6172 5.5625Z" stroke="#78A1CF"/>
<path d="M26.1328 7.3125C26.1328 8.69487 25.0074 9.82031 23.625 9.82031C22.2426 9.82031 21.1172 8.69487 21.1172 7.3125C21.1172 5.93013 22.2426 4.80469 23.625 4.80469C25.0074 4.80469 26.1328 5.93013 26.1328 7.3125ZM25.4922 7.3125C25.4922 6.28249 24.655 5.44531 23.625 5.44531C22.595 5.44531 21.7578 6.28249 21.7578 7.3125C21.7578 8.34251 22.595 9.17969 23.625 9.17969C24.655 9.17969 25.4922 8.34251 25.4922 7.3125Z" stroke="#78A1CF"/>
<path d="M19.2754 14.6695L19.7822 15.2227L20.0978 14.542C20.6068 13.4438 21.7243 12.6797 23.018 12.6797H24.2867C26.0609 12.6797 27.5 14.1144 27.5001 15.8705V21.7861C27.5001 22.423 26.9785 22.9453 26.3343 22.9453H21.3753H20.9164L20.8771 23.4025C20.8149 24.1255 20.2057 24.6953 19.4676 24.6953H8.53245C7.79426 24.6953 7.18507 24.1255 7.12295 23.4025L7.08367 22.9453H6.62479H1.60847C0.995891 22.9453 0.5 22.4486 0.5 21.843V15.8705C0.5 14.1144 1.93906 12.6797 3.71328 12.6797H4.98203C6.2757 12.6797 7.39317 13.4438 7.9023 14.542L8.21784 15.2227L8.72461 14.6695C9.84508 13.4463 11.4525 12.6797 13.2356 12.6797H14.7645C16.5476 12.6797 18.155 13.4463 19.2754 14.6695ZM7.52145 16.6115L7.55469 16.525V16.4322V15.8705C7.55469 14.4588 6.39589 13.3203 4.98203 13.3203H3.71328C2.29942 13.3203 1.14062 14.4588 1.14062 15.8705V21.8047V22.3047H1.64062H6.61719H7.11719V21.8047C7.11719 21.2957 7.11442 20.85 7.11197 20.4548C7.09933 18.4164 7.09502 17.7218 7.52145 16.6115ZM20.8828 21.8047V22.3047H21.3828C22.749 22.3047 23.7419 22.3053 24.463 22.3058C25.1351 22.3062 25.5711 22.3065 25.8529 22.306C26.1375 22.3054 26.2819 22.3042 26.3531 22.3001C26.3704 22.2991 26.4021 22.2971 26.4365 22.2912C26.4529 22.2885 26.4882 22.2819 26.5302 22.2666C26.5612 22.2553 26.6661 22.2155 26.7525 22.1076C26.8481 21.9882 26.872 21.8516 26.8594 21.7375V15.8705C26.8594 14.4588 25.7006 13.3203 24.2867 13.3203H23.018C21.6041 13.3203 20.4453 14.4588 20.4453 15.8705V16.4322V16.525L20.4786 16.6115C20.9046 17.7207 20.9004 18.4011 20.8879 20.4515C20.8855 20.8472 20.8828 21.294 20.8828 21.8047ZM26.7781 21.5143C26.7782 21.5144 26.78 21.5172 26.7828 21.5217L26.7825 21.5212L26.7825 21.5211C26.7793 21.5163 26.7781 21.5142 26.7781 21.5143ZM19.4676 24.0547C19.8952 24.0547 20.2422 23.7077 20.2422 23.2801V18.798C20.2422 15.7772 17.7853 13.3203 14.7644 13.3203H13.2355C10.2147 13.3203 7.75781 15.7772 7.75781 18.7981V23.2801C7.75781 23.7076 8.10476 24.0547 8.5324 24.0547H19.4676ZM25.9368 22.0548C25.9348 22.0516 25.9322 22.0474 25.9293 22.0423C25.932 22.0469 25.9346 22.0512 25.9368 22.0548Z" stroke="#78A1CF"/>
<path d="M6.88281 7.3125C6.88281 8.69487 5.75737 9.82031 4.375 9.82031C2.99263 9.82031 1.86719 8.69487 1.86719 7.3125C1.86719 5.93013 2.99263 4.80469 4.375 4.80469C5.75737 4.80469 6.88281 5.93013 6.88281 7.3125ZM6.24219 7.3125C6.24219 6.28249 5.40501 5.44531 4.375 5.44531C3.34499 5.44531 2.50781 6.28249 2.50781 7.3125C2.50781 8.34251 3.34499 9.17969 4.375 9.17969C5.40501 9.17969 6.24219 8.34251 6.24219 7.3125Z" stroke="#78A1CF"/>
</svg>
