<svg width="28" height="28" viewBox="0 0 28 28" fill="none" xmlns="http://www.w3.org/2000/svg">
<path d="M0.5 14C0.5 6.55668 6.55668 0.5 14 0.5C21.4433 0.5 27.5 6.55668 27.5 14C27.5 21.4433 21.4433 27.5 14 27.5C6.55668 27.5 0.5 21.4433 0.5 14ZM1.25001 14C1.25001 21.0309 6.96909 26.75 14 26.75C21.0309 26.75 26.75 21.0309 26.75 14C26.75 6.96909 21.0309 1.25001 14 1.25001C6.96909 1.25001 1.25001 6.96909 1.25001 14Z" stroke="#78A1CF"/>
<path d="M14.375 13.6377V13.8448L14.5215 13.9912L19.1615 18.6313L18.6313 19.1615L13.625 14.1552V5.75H14.375V13.6377Z" stroke="#78A1CF"/>
</svg>
