<svg width="28" height="18" viewBox="0 0 28 18" fill="none" xmlns="http://www.w3.org/2000/svg">
<path d="M18.7135 5.8909V5.15238V2.84944C18.7135 1.70431 17.7811 0.771851 16.6359 0.771851H2.57764C1.4325 0.771851 0.5 1.70432 0.5 2.84944V15.1505C0.5 16.2956 1.4325 17.2281 2.57764 17.2281H16.6359C17.7811 17.2281 18.7135 16.2957 18.7135 15.1505V12.8476V12.1091L19.3992 12.3833L27.0607 15.4479C27.0607 15.4479 27.0607 15.4479 27.0607 15.4479C27.0992 15.4633 27.1395 15.4708 27.1796 15.4708C27.2429 15.4708 27.3055 15.4521 27.3592 15.4158L27.6396 15.8298L27.3592 15.4158C27.4473 15.3561 27.5 15.2568 27.5 15.1505V2.84944C27.5 2.74322 27.4473 2.64387 27.3593 2.58423L18.7135 5.8909ZM18.7135 5.8909L19.3992 5.61662M18.7135 5.8909L19.3992 5.61662M19.3992 5.61662L27.0606 2.55207M19.3992 5.61662L27.0606 2.55207M27.0606 2.55207C27.1594 2.51259 27.2712 2.52463 27.3592 2.58418L27.0606 2.55207ZM26.1737 14.4032L26.8594 14.6774V13.9389V4.06104V3.32252L26.1737 3.5968L19.0278 6.45515L18.7135 6.58088V6.91939V11.0806V11.4191L19.0278 11.5448L26.1737 14.4032ZM16.6359 16.5875C17.4287 16.5875 18.0729 15.9433 18.0729 15.1505V2.84944C18.0729 2.05666 17.4287 1.41248 16.6359 1.41248H2.57764C1.7849 1.41248 1.14062 2.05662 1.14062 2.84944V15.1505C1.14062 15.9433 1.7849 16.5875 2.57764 16.5875H16.6359Z" stroke="#78A1CF"/>
</svg>
