<svg width="28" height="28" viewBox="0 0 28 28" fill="none" xmlns="http://www.w3.org/2000/svg">
<path d="M5.75 21.8041V21.5442L5.5373 21.3949C2.45187 19.2288 0.5 15.9301 0.5 12.25C0.5 5.82126 6.47985 0.5 14 0.5C21.521 0.5 27.5 5.82124 27.5 12.25C27.5 18.6788 21.521 24 14 24C13.1352 24 12.2894 23.9214 11.4643 23.7853L11.2817 23.7552L11.1235 23.8511L5.75 27.1118V21.8041ZM6.423 24.8983L6.4108 25.7963L7.18055 25.3336L11.1326 22.9581C12.052 23.1422 13.009 23.25 14 23.25C20.9666 23.25 26.75 18.3943 26.75 12.25C26.75 6.10573 20.9666 1.25 14 1.25C7.03341 1.25 1.25 6.10573 1.25 12.25C1.25 15.919 3.33147 19.1362 6.47428 21.1235L6.423 24.8983ZM9.625 15.375H18.375C18.5819 15.375 18.75 15.5431 18.75 15.75C18.75 15.9569 18.5819 16.125 18.375 16.125H9.625C9.41814 16.125 9.25 15.9569 9.25 15.75C9.25 15.5431 9.41814 15.375 9.625 15.375ZM7.875 10.125H20.125C20.3319 10.125 20.5 10.2931 20.5 10.5C20.5 10.7069 20.3319 10.875 20.125 10.875H7.875C7.66814 10.875 7.5 10.7069 7.5 10.5C7.5 10.2931 7.66814 10.125 7.875 10.125Z" stroke="#78A1CF"/>
</svg>
