<svg width="22" height="28" viewBox="0 0 22 28" fill="none" xmlns="http://www.w3.org/2000/svg">
<path d="M11.2615 20.8232L11 20.6626L10.7384 20.8232L0.500051 27.1064V3.28158C0.500051 1.84892 2.0139 0.500051 4.12498 0.500051H17.8749C19.986 0.500051 21.4999 1.84892 21.4999 3.28158V27.1064L11.2615 20.8232ZM20.2495 25.4328L21.0001 25.8673V25V3.78158C21.0001 3.00494 20.6942 2.29804 20.1325 1.78948C19.5728 1.2829 18.7904 0.999949 17.8749 0.999949H4.12498C3.50151 0.999949 2.75658 1.13634 2.14859 1.47262C1.52826 1.81574 0.999949 2.40409 0.999949 3.28158V25V25.8673L1.75054 25.4328L11 20.0778L20.2495 25.4328Z" stroke="#78A1CF" stroke-width="1.0001"/>
</svg>
