<svg width="47" height="53" viewBox="0 0 47 53" fill="none" xmlns="http://www.w3.org/2000/svg">
<path d="M45.2789 9.15193C37.9868 7.15387 30.6518 4.04272 24.0668 0.154885C23.7171 -0.0516283 23.283 -0.0516283 22.9333 0.154885C16.1585 4.15441 9.21982 7.09725 1.72065 9.15193C1.23619 9.28453 0.900391 9.72489 0.900391 10.2272V21.6187C0.900391 33.3494 6.31207 41.1143 10.8521 45.5624C15.7396 50.3516 21.433 53 23.5001 53C25.567 53 31.2603 50.3516 36.1479 45.5624C40.6878 41.1144 46.0992 33.3495 46.0992 21.6187V10.2271C46.0992 9.72488 45.7634 9.28453 45.2789 9.15193ZM43.8694 21.6186C43.8694 32.575 38.8219 39.8205 34.5873 43.9697C29.781 48.6791 24.6422 50.7701 23.5001 50.7701C22.358 50.7701 17.2189 48.6791 12.4124 43.9697C8.17794 39.8204 3.13022 32.575 3.13022 21.6186V11.0735C10.3016 9.03734 16.9802 6.19573 23.5003 2.40676C29.8576 6.09522 36.8694 9.07812 43.8694 11.0731V21.6186Z" fill="#78A1CF"/>
<path d="M13.6175 10.9488C13.3919 10.3758 12.7446 10.0944 12.1715 10.3201C10.1799 11.1049 8.13566 11.8272 6.09568 12.4671C5.6308 12.6131 5.31445 13.0437 5.31445 13.5309V17.8362C5.31445 18.4519 5.81371 18.951 6.42931 18.951C7.04492 18.951 7.54417 18.4519 7.54417 17.8362V14.3456C9.37422 13.7535 11.2023 13.0986 12.9889 12.3946C13.5618 12.169 13.8433 11.5217 13.6175 10.9488Z" fill="#78A1CF"/>
<path d="M15.7346 11.1603C15.8842 11.1603 16.036 11.1301 16.1817 11.0666L16.2022 11.0577C16.7662 10.8105 17.0203 10.1539 16.7731 9.59003C16.5257 9.02597 15.8653 8.77081 15.3019 9.0178L15.2839 9.02556C14.7195 9.27203 14.4647 9.92811 14.7111 10.4923C14.8941 10.9111 15.3045 11.1603 15.7346 11.1603Z" fill="#78A1CF"/>
<path d="M36.7823 35.9492C36.2671 35.6125 35.5762 35.7573 35.2391 36.2727C34.3204 37.6789 33.2426 39.0254 32.0352 40.2745C31.0423 41.3016 29.9663 42.2589 28.8373 43.1197C28.3477 43.4929 28.2535 44.1925 28.6267 44.6822C28.8463 44.9699 29.1782 45.1212 29.5141 45.1212C29.7499 45.1212 29.9874 45.0468 30.1893 44.8928C31.4071 43.9641 32.5676 42.9318 33.6381 41.8244C34.9435 40.4741 36.1102 39.0166 37.1058 37.4923C37.4427 36.9768 37.2977 36.286 36.7823 35.9492Z" fill="#78A1CF"/>
<path d="M26.2494 44.868L26.1855 44.9057C25.6527 45.2142 25.4706 45.8962 25.7791 46.429C25.9858 46.7861 26.36 46.9855 26.7449 46.9855C26.9344 46.9855 27.1267 46.9372 27.3024 46.8352L27.3762 46.7918C27.9075 46.4807 28.086 45.7978 27.7748 45.2664C27.4634 44.7353 26.7805 44.5571 26.2494 44.868Z" fill="#78A1CF"/>
<path d="M15.9017 24.2246C15.2172 23.54 14.3068 23.1632 13.3385 23.1632C12.3702 23.1632 11.4597 23.5401 10.7748 24.2246C9.36152 25.6382 9.36152 27.9383 10.7748 29.3518L17.358 35.9348C18.0426 36.6193 18.9531 36.9962 19.9214 36.9962C20.8898 36.9962 21.8002 36.6193 22.485 35.9346L36.2278 22.1917C37.641 20.7778 37.641 18.478 36.2276 17.0649C35.543 16.3802 34.6325 16.0034 33.664 16.0034C32.6957 16.0034 31.7852 16.3803 31.1005 17.0649L19.9213 28.244L15.9017 24.2246ZM32.6772 18.6416C32.9407 18.3782 33.2913 18.2331 33.6641 18.2331C34.0372 18.2331 34.3875 18.3782 34.6512 18.6416C35.1951 19.1856 35.1951 20.0711 34.651 20.6152L20.9084 34.358C20.6449 34.6214 20.2943 34.7664 19.9214 34.7664C19.5486 34.7664 19.198 34.6214 18.9344 34.358L12.3515 27.7752C11.8073 27.231 11.8073 26.3455 12.3513 25.8016C12.6148 25.5381 12.9654 25.3929 13.3384 25.3929C13.7113 25.3929 14.0617 25.5379 14.3252 25.8014L19.133 30.6092C19.3422 30.8182 19.6256 30.9357 19.9213 30.9357C20.2171 30.9357 20.5005 30.8183 20.7095 30.6092L32.6772 18.6416Z" fill="#78A1CF"/>
</svg>
