<svg viewBox="0 0 512 512" xmlns="http://www.w3.org/2000/svg">
    <style>
        <![CDATA[:root>svg{display:none}:root>svg:target{display:block}]]>
    </style>
    <svg viewBox="0 0 16 16" id="attach" xmlns="http://www.w3.org/2000/svg">
        <path d="M14.644 1.676a4.51 4.51 0 0 0-6.31.001L.98 9.03a3.445 3.445 0 0 0 4.871 4.872l6.659-6.659A2.217 2.217 0 0 0 9.376 4.11l-6.369 6.368a.579.579 0 0 0 .819.82l6.369-6.37a1.059 1.059 0 0 1 1.497 1.498l-6.658 6.658A2.287 2.287 0 0 1 1.799 9.85l7.353-7.353a3.354 3.354 0 0 1 4.745 4.743l-7.353 7.353a.579.579 0 1 0 .816.816l7.353-7.353a4.51 4.51 0 0 0-.07-6.379z"/>
    </svg>
    <svg viewBox="0 0 21 21" id="basket" xmlns="http://www.w3.org/2000/svg">
        <path d="M20.879 4.388a.673.673 0 0 0-.524-.288L7.33 3.538a.674.674 0 1 0-.058 1.346l12.144.524-2.388 7.45H6.401L4.481 2.405a.674.674 0 0 0-.416-.505L.92.665a.674.674 0 0 0-.493 1.254l2.796 1.098 1.954 10.637c.059.32.337.552.663.552h.324l-.74 2.056a.56.56 0 0 0 .528.751h.52a2.01 2.01 0 0 0-.52 1.348c0 1.114.907 2.021 2.021 2.021a2.024 2.024 0 0 0 2.022-2.021c0-.518-.198-.99-.52-1.348h4.408a2.01 2.01 0 0 0-.52 1.348c0 1.114.907 2.021 2.022 2.021a2.024 2.024 0 0 0 2.021-2.021c0-.518-.197-.99-.518-1.348h.63a.561.561 0 1 0 0-1.123H6.752l.606-1.684H17.52c.293 0 .552-.19.641-.468l2.808-8.76a.672.672 0 0 0-.09-.59zM7.973 19.259a.9.9 0 0 1 0-1.796.9.9 0 0 1 0 1.796zm7.412 0a.9.9 0 1 1 .002-1.798.9.9 0 0 1-.002 1.798z"/>
    </svg>
    <svg viewBox="0 0 15 12" id="checkbox" xmlns="http://www.w3.org/2000/svg">
        <path d="m2 5 4.23 5L13 2" stroke="#fff" stroke-width="2.5" stroke-linecap="round"/>
    </svg>
    <svg viewBox="0 0 21 21" id="copylink" xmlns="http://www.w3.org/2000/svg">
        <path d="M18.027 20.334H7.567a2.31 2.31 0 0 1-2.306-2.308V7.567A2.31 2.31 0 0 1 7.568 5.26h10.459a2.31 2.31 0 0 1 2.307 2.307v10.46a2.31 2.31 0 0 1-2.307 2.306zM7.567 6.798a.77.77 0 0 0-.768.77v10.458a.77.77 0 0 0 .769.77h10.459a.77.77 0 0 0 .769-.77V7.567a.77.77 0 0 0-.77-.769H7.569zm-3.844 7.383h-.77a.77.77 0 0 1-.768-.769V2.953a.77.77 0 0 1 .769-.769h10.459a.77.77 0 0 1 .769.77v.73h1.538v-.73A2.31 2.31 0 0 0 13.413.645H2.953A2.31 2.31 0 0 0 .647 2.953v10.46a2.31 2.31 0 0 0 2.308 2.306h.769v-1.538z"/>
    </svg>
    <svg viewBox="0 0 34 34" id="editoffer" xmlns="http://www.w3.org/2000/svg">
        <path d="M5.9 23.16a1.062 1.062 0 0 1-.751-1.814L21.753 4.745a1.062 1.062 0 1 1 1.502 1.502L6.651 22.85a1.06 1.06 0 0 1-.75.31z"/>
        <path d="M4.259 30.813a1.062 1.062 0 0 1-1.04-1.286l1.642-7.652a1.063 1.063 0 0 1 2.078.446l-1.642 7.651c-.107.5-.548.84-1.038.84zm7.651-1.643a1.062 1.062 0 0 1-.751-1.814l16.603-16.602a1.062 1.062 0 1 1 1.503 1.502L12.662 28.86a1.06 1.06 0 0 1-.752.31z"/>
        <path d="M4.257 30.813a1.063 1.063 0 0 1-.222-2.102l7.652-1.642a1.064 1.064 0 0 1 .445 2.078l-7.651 1.642c-.075.016-.15.023-.224.023zm21.251-15.24c-.272 0-.544-.104-.751-.312l-6.01-6.01a1.062 1.062 0 1 1 1.502-1.502l6.01 6.01a1.062 1.062 0 0 1-.751 1.814zm3.005-3.005a1.063 1.063 0 0 1-.752-1.814 3.16 3.16 0 0 0 .917-2.254c0-.862-.326-1.662-.917-2.254a3.16 3.16 0 0 0-2.254-.917c-.862 0-1.662.326-2.254.917a1.062 1.062 0 1 1-1.502-1.503 5.268 5.268 0 0 1 3.756-1.54c1.43 0 2.764.548 3.757 1.54a5.268 5.268 0 0 1 1.54 3.757c0 1.43-.547 2.764-1.54 3.756a1.058 1.058 0 0 1-.751.312z"/>
    </svg>
    <svg viewBox="0 0 20 20" id="exit" xmlns="http://www.w3.org/2000/svg">
        <g clip-path="url(#afclip0_1_1974)">
            <path d="m19.753 9.521-2.14-1.509a.586.586 0 0 0-.924.48v.922H6.414a.586.586 0 0 0 0 1.172H16.69v.922c0 .478.539.75.924.48l2.14-1.51a.587.587 0 0 0 0-.957z"/>
            <path d="M16.815 13.762a.586.586 0 0 0-.8.214 7.952 7.952 0 0 1-6.89 3.977c-4.385 0-7.953-3.567-7.953-7.953 0-4.385 3.568-7.953 7.953-7.953a7.952 7.952 0 0 1 6.89 3.977.586.586 0 0 0 1.014-.587A9.124 9.124 0 0 0 9.125.875 9.12 9.12 0 0 0 0 10a9.12 9.12 0 0 0 9.125 9.125 9.124 9.124 0 0 0 7.904-4.562.586.586 0 0 0-.214-.8z"/>
        </g>
        <defs>
            <clipPath id="afclip0_1_1974">
                <path d="M0 0h20v20H0z"/>
            </clipPath>
        </defs>
    </svg>
    <svg viewBox="0 0 53 53" id="garant" xmlns="http://www.w3.org/2000/svg">
        <path d="M46.733 9.386a.776.776 0 1 0-1.185 1.003 24.96 24.96 0 0 1 5.9 16.111c0 13.756-11.192 24.947-24.948 24.947S1.553 40.256 1.553 26.5c0-13.756 11.191-24.947 24.947-24.947A24.908 24.908 0 0 1 43.092 7.87a.776.776 0 0 0 1.033-1.16A26.459 26.459 0 0 0 26.5 0C19.422 0 12.767 2.757 7.762 7.762 2.757 12.767 0 19.422 0 26.5c0 7.078 2.757 13.733 7.762 18.738C12.767 50.243 19.422 53 26.5 53c7.078 0 13.733-2.757 18.738-7.762C50.244 40.233 53 33.578 53 26.5a26.514 26.514 0 0 0-6.267-17.114z"/>
        <path d="M13.321 8.243a22.71 22.71 0 0 0-6.789 7.844A22.571 22.571 0 0 0 3.984 26.5a22.367 22.367 0 0 0 6.595 15.92 22.368 22.368 0 0 0 15.92 6.595c.936 0 1.878-.058 2.8-.173a.777.777 0 0 0-.191-1.54 21.26 21.26 0 0 1-2.609.16c-11.558 0-20.962-9.404-20.962-20.962 0-6.708 3.25-13.063 8.694-16.999a.776.776 0 0 0-.91-1.258zm18.714 39.299a.777.777 0 0 0 .968.52c4.535-1.367 8.611-4.212 11.48-8.012a22.32 22.32 0 0 0 4.531-13.55 22.368 22.368 0 0 0-6.594-15.92A22.368 22.368 0 0 0 26.5 3.985c-3.51 0-6.871.785-9.992 2.334a.776.776 0 1 0 .69 1.39A20.752 20.752 0 0 1 26.5 5.54c11.558 0 20.962 9.402 20.962 20.961 0 9.176-6.13 17.43-14.907 20.074a.776.776 0 0 0-.52.968z"/>
        <path d="M40.999 20.62a.776.776 0 0 0-1.03.379L35.192 31.35a.776.776 0 0 0 1.41.65l4.775-10.352a.776.776 0 0 0-.38-1.03zm-6.532-.072c-1.29 0-2.338 1.162-2.338 2.59 0 1.43 1.049 2.592 2.338 2.592 1.289 0 2.338-1.163 2.338-2.591 0-1.429-1.05-2.591-2.338-2.591zm0 3.629c-.426 0-.785-.476-.785-1.038 0-.563.36-1.038.785-1.038.425 0 .785.475.785 1.038 0 .563-.36 1.038-.785 1.038zm5.221 5.684c0 1.429 1.048 2.591 2.337 2.591 1.29 0 2.338-1.162 2.338-2.59 0-1.43-1.049-2.592-2.338-2.592-1.289 0-2.337 1.163-2.337 2.591zm2.337-1.038c.426 0 .785.475.785 1.038 0 .563-.36 1.038-.785 1.038-.425 0-.785-.475-.785-1.038 0-.563.36-1.038.785-1.038zM12.04 32.452a.776.776 0 0 0 .776-.776V21.324a.776.776 0 0 0-.776-.776H9.827a.776.776 0 0 0 0 1.553h1.436v9.575c0 .429.348.776.777.776zm6.036 0A3.656 3.656 0 0 0 21.73 28.8v-4.6a3.656 3.656 0 0 0-3.653-3.652 3.657 3.657 0 0 0-3.652 3.652v4.6a3.657 3.657 0 0 0 3.652 3.652zm-2.1-8.252c0-1.157.943-2.1 2.1-2.1 1.158 0 2.1.942 2.1 2.1v4.6c0 1.158-.942 2.1-2.1 2.1-1.157 0-2.1-.942-2.1-2.1v-4.6zm14.657 0a3.656 3.656 0 0 0-3.652-3.652 3.657 3.657 0 0 0-3.653 3.652v4.6a3.657 3.657 0 0 0 3.652 3.652 3.656 3.656 0 0 0 3.653-3.652v-4.6zm-1.553 4.6c0 1.158-.942 2.1-2.1 2.1-1.157 0-2.1-.942-2.1-2.1v-4.6c0-1.157.943-2.1 2.1-2.1 1.158 0 2.1.942 2.1 2.1v4.6z"/>
    </svg>
    <svg viewBox="0 0 53 53" id="handshield" xmlns="http://www.w3.org/2000/svg">
        <g clip-path="url(#ahclip0_1_234)">
            <path d="M25.606 20.209a.784.784 0 0 0 1.182-.135l5.167-7.798a.777.777 0 0 0-1.294-.858l-4.657 7.028-2.588-2.457a.777.777 0 0 0-1.069 1.126l3.259 3.094z"/>
            <path d="M26.136 32.05c.148.068.312.104.476.104h.006c.166 0 .333-.039.482-.11 11.805-5.614 13.806-17.728 14.138-21.307a1.856 1.856 0 0 0-1.145-1.894 6.785 6.785 0 0 1-4.17-5.694 1.533 1.533 0 0 0-1.52-1.39h-.01l-15.905.094a1.521 1.521 0 0 0-1.515 1.417 6.786 6.786 0 0 1-4.108 5.736 1.85 1.85 0 0 0-1.116 1.904c.373 3.575 2.516 15.664 14.387 21.14zm-12.66-21.617a8.332 8.332 0 0 0 5.044-7.027l15.859-.094a8.333 8.333 0 0 0 5.119 6.965c.128.054.206.18.194.317-.312 3.354-2.174 14.663-13.083 19.963-10.972-5.17-12.966-16.458-13.316-19.809a.306.306 0 0 1 .182-.315z"/>
            <path d="M15.413 14.737c.094.346.532.662.953.546a.777.777 0 0 0 .546-.953 25.61 25.61 0 0 1-.495-2.2 10.919 10.919 0 0 0 4.442-5.82l11.212-.067a10.918 10.918 0 0 0 4.51 5.77 25.056 25.056 0 0 1-.469 2.206.777.777 0 1 0 1.504.39c.222-.86.403-1.731.538-2.592a1.187 1.187 0 0 0-.56-1.204 9.37 9.37 0 0 1-4.12-5.282 1.2 1.2 0 0 0-1.141-.842h-.008l-11.738.069a1.2 1.2 0 0 0-1.139.856 9.37 9.37 0 0 1-4.058 5.33c-.412.255-.626.73-.545 1.21.145.859.335 1.728.568 2.583zm20.635 2.303a.776.776 0 0 0-1.014.42c-1.794 4.349-4.634 7.655-8.444 9.83-3.84-2.133-6.72-5.411-8.566-9.746a.777.777 0 0 0-1.429.608c2.014 4.73 5.186 8.297 9.428 10.599a1.189 1.189 0 0 0 1.151-.007c4.21-2.349 7.338-5.946 9.296-10.692a.776.776 0 0 0-.422-1.013zM4.981 41.486a2.75 2.75 0 0 0-2.747 2.747 2.75 2.75 0 0 0 2.747 2.747 2.75 2.75 0 0 0 2.747-2.747 2.75 2.75 0 0 0-2.747-2.747zm0 3.941a1.195 1.195 0 0 1-1.194-1.194 1.196 1.196 0 0 1 2.389 0c0 .659-.536 1.194-1.195 1.194z"/>
            <path d="M52.443 33.886a3.234 3.234 0 0 0-4.466-.864l-10.15 6.793-2.166-.122-.055-.555a4.712 4.712 0 0 0-4.08-4.214l-10.936-.958c-.37-.058-1.554-.398-4.808-2.265a12.077 12.077 0 0 0-5.534-1.592v-2.03a1.85 1.85 0 0 0-1.848-1.85H1.848A1.85 1.85 0 0 0 0 28.08v20.003a1.85 1.85 0 0 0 1.848 1.849H8.4a1.85 1.85 0 0 0 1.848-1.849v-.551l9.56 3.62c.021.008.798.299 2.225.164l15.884-2.29.012-.002a7.81 7.81 0 0 0 3.73-1.682l10.259-9.227a3.234 3.234 0 0 0 .525-4.228zm-1.56 3.07-10.248 9.217a6.257 6.257 0 0 1-2.945 1.316l-15.873 2.288-.014.002-.007.002c-.475.074-.97.043-1.47-.094L10.248 45.87v-8.867a.776.776 0 1 0-1.552 0v11.078a.296.296 0 0 1-.296.296H1.848a.296.296 0 0 1-.295-.296V28.078c0-.163.132-.295.295-.295H8.4c.163 0 .296.132.296.295v5.42a.776.776 0 1 0 1.553 0v-1.834a10.52 10.52 0 0 1 4.76 1.384c3.925 2.252 5.021 2.407 5.382 2.458l.04.005 10.938.958a3.164 3.164 0 0 1 2.692 2.823l.041.413-14.643.905-.03-.003a1.77 1.77 0 0 1-1.207-.632.776.776 0 1 0-1.193.994 3.362 3.362 0 0 0 2.262 1.185c.48.05 15.665-.946 15.665-.946L38 41.38a.774.774 0 0 0 .475-.13l10.367-6.939a1.678 1.678 0 0 1 2.317.448 1.68 1.68 0 0 1-.276 2.197z"/>
        </g>
        <defs>
            <clipPath id="ahclip0_1_234">
                <path d="M0 0h53v53H0z"/>
            </clipPath>
        </defs>
    </svg>
    <svg viewBox="0 0 18 18" id="help" xmlns="http://www.w3.org/2000/svg">
        <path d="M9 18A9 9 0 1 0 9 .001 9 9 0 0 0 9 18zM9 3.372a1.2 1.2 0 1 1 0 2.4 1.2 1.2 0 0 1 0-2.4zM7.8 9a1.2 1.2 0 0 1 2.4 0v4.8a1.2 1.2 0 1 1-2.4 0V9z"/>
    </svg>
    <svg viewBox="0 0 20 20" id="hidepassword" xmlns="http://www.w3.org/2000/svg">
        <path d="M10 13.08a3.08 3.08 0 1 0 0-6.157 3.08 3.08 0 0 0 0 6.158z"/>
        <path d="M19.693 9.149c-2.367-2.86-5.95-5.613-9.693-5.613-3.744 0-7.328 2.755-9.693 5.613a1.339 1.339 0 0 0 0 1.706c.594.718 1.841 2.105 3.506 3.317 4.193 3.053 8.171 3.06 12.374 0 1.665-1.212 2.912-2.599 3.506-3.318.408-.493.41-1.21 0-1.705zM10 5.69A4.315 4.315 0 0 1 14.31 10 4.315 4.315 0 0 1 10 14.313a4.315 4.315 0 0 1-4.31-4.31A4.315 4.315 0 0 1 10 5.69z"/>
    </svg>
    <svg viewBox="0 0 18 18" id="info" xmlns="http://www.w3.org/2000/svg">
        <path d="M9 18A9 9 0 1 0 9 .001 9 9 0 0 0 9 18zM9 3.372a1.2 1.2 0 1 1 0 2.4 1.2 1.2 0 0 1 0-2.4zM7.8 9a1.2 1.2 0 0 1 2.4 0v4.8a1.2 1.2 0 1 1-2.4 0V9z"/>
    </svg>
    <svg viewBox="0 0 29 53" id="lowprice" xmlns="http://www.w3.org/2000/svg">
        <path d="M13.76 17.168a1.035 1.035 0 0 0-1.465 1.464 2.76 2.76 0 0 0 1.17.696v.34a1.035 1.035 0 0 0 2.07 0v-.546a2.763 2.763 0 0 0 .664-4.394l-1.934-1.935a.686.686 0 0 1-.202-.488c0-.184.071-.358.202-.488a.686.686 0 0 1 .488-.202c.184 0 .357.072.488.202a1.035 1.035 0 1 0 1.464-1.464 2.745 2.745 0 0 0-1.17-.696v-.34a1.035 1.035 0 0 0-2.07 0v.545a2.766 2.766 0 0 0-1.473 2.443c0 .738.287 1.43.809 1.952l1.934 1.935a.685.685 0 0 1 0 .976.69.69 0 0 1-.976 0z"/>
        <path d="M14.5 24.844c5.708 0 10.352-4.644 10.352-10.352S20.208 4.141 14.5 4.141 4.148 8.785 4.148 14.492c0 5.709 4.644 10.352 10.352 10.352zm0-18.633c4.567 0 8.282 3.715 8.282 8.281 0 4.567-3.715 8.282-8.282 8.282-4.566 0-8.281-3.715-8.281-8.282 0-4.566 3.715-8.28 8.281-8.28z"/>
        <path d="M26.259 36.425H24.85V24.624a14.444 14.444 0 0 0 4.141-10.132C28.992 6.502 22.491 0 14.5 0c-2.117 0-4.16.447-6.07 1.33a1.035 1.035 0 0 0 .868 1.88A12.32 12.32 0 0 1 14.5 2.07c6.85 0 12.422 5.573 12.422 12.422 0 6.85-5.573 12.422-12.422 12.422-6.85 0-12.422-5.572-12.422-12.422 0-1.815.383-3.565 1.138-5.2a1.035 1.035 0 0 0-1.88-.868 14.372 14.372 0 0 0-1.329 6.068c0 3.94 1.581 7.517 4.141 10.132v11.8H2.743a2.704 2.704 0 0 0-2.571 1.81 2.711 2.711 0 0 0 .802 3.017L12.628 52.26a2.726 2.726 0 0 0 1.873.741c.674 0 1.349-.248 1.874-.743l11.757-11.104a2.736 2.736 0 0 0-1.873-4.728zm.453 3.221L14.954 50.751a.662.662 0 0 1-.906.001L2.373 39.725a1.073 1.073 0 0 0-.053-.047.654.654 0 0 1-.199-.745.634.634 0 0 1 .622-.438h2.44c.572 0 1.035-.463 1.035-1.035V26.379a14.41 14.41 0 0 0 8.282 2.606c3.077 0 5.932-.965 8.281-2.606v11.08c0 .572.464 1.036 1.035 1.036h2.443c.182 0 .354.075.483.213a.664.664 0 0 1-.03.938z"/>
        <path d="M4.985 6.012a1.035 1.035 0 1 0-.696-1.801h-.001a1.035 1.035 0 0 0 .697 1.8z"/>
    </svg>
    <svg viewBox="0 0 40 40" id="mail" xmlns="http://www.w3.org/2000/svg">
        <path fill-rule="evenodd" clip-rule="evenodd" d="M20 40C8.972 40 0 31.028 0 20S8.972 0 20 0s20 8.972 20 20-8.972 20-20 20zm10.372-12.974c.246 0 .447-.2.447-.447V14.023l-10.176 8.08a1.033 1.033 0 0 1-1.286 0L9.18 14.023v12.556c0 .246.2.447.447.447h20.744zm-1.56-14.052L20 19.972l-8.812-6.998h17.624zm4.076.447V26.58a2.52 2.52 0 0 1-2.516 2.516H9.628a2.519 2.519 0 0 1-2.516-2.516V13.42a2.52 2.52 0 0 1 2.516-2.516h20.744a2.52 2.52 0 0 1 2.516 2.516z"/>
    </svg>
    <svg viewBox="0 0 28 28" id="profile" xmlns="http://www.w3.org/2000/svg">
        <path d="M23.9 4.1A13.909 13.909 0 0 0 14 0a13.91 13.91 0 0 0-9.9 4.1A13.909 13.909 0 0 0 0 14a13.91 13.91 0 0 0 4.1 9.9A13.909 13.909 0 0 0 14 28a13.91 13.91 0 0 0 9.9-4.1A13.909 13.909 0 0 0 28 14a13.91 13.91 0 0 0-4.1-9.9zM14 26.36a12.331 12.331 0 0 1-9.212-4.13A9.846 9.846 0 0 1 14 15.86a4.922 4.922 0 1 1 0-9.844 4.922 4.922 0 0 1 0 9.843 9.846 9.846 0 0 1 9.212 6.37A12.331 12.331 0 0 1 14 26.36z"/>
    </svg>
    <svg viewBox="0 0 26 28" id="service1" xmlns="http://www.w3.org/2000/svg">
        <path d="M21.49 10.916a6.157 6.157 0 0 0 2.236-4.749C23.726 2.767 20.96 0 17.56 0a6.174 6.174 0 0 0-6.03 7.464 6.174 6.174 0 0 0-7.249 6.072 6.16 6.16 0 0 0 2.236 4.748C2.698 19.84 0 23.592 0 27.963h2.188c0-4.555 3.705-8.26 8.26-8.26a6.174 6.174 0 0 0 6.03-7.463c.35.062.712.095 1.08.095a8.25 8.25 0 0 1 6.582 3.276l1.483-1.65a10.5 10.5 0 0 0-4.133-3.045zm-11.042 6.599a3.984 3.984 0 0 1-3.98-3.98 3.984 3.984 0 0 1 3.98-3.978 3.984 3.984 0 0 1 3.979 3.979 3.984 3.984 0 0 1-3.98 3.979zm7.11-7.368a3.984 3.984 0 0 1-3.978-3.98 3.984 3.984 0 0 1 3.979-3.979 3.984 3.984 0 0 1 3.979 3.98 3.984 3.984 0 0 1-3.98 3.979z"/>
    </svg>
    <svg aria-hidden="true" data-prefix="far" data-icon="heart" class="apsvg-inline--fa apfa-heart apfa-w-16" viewBox="0 0 512 512" id="service2" xmlns="http://www.w3.org/2000/svg">
        <path d="M458.4 64.3C400.6 15.7 311.3 23 256 79.3 200.7 23 111.4 15.6 53.6 64.3-21.6 127.6-10.6 230.8 43 285.5l175.4 178.7c10 10.2 23.4 15.9 37.6 15.9 14.3 0 27.6-5.6 37.6-15.8L469 285.6c53.5-54.7 64.7-157.9-10.6-221.3zm-23.6 187.5L259.4 430.5c-2.4 2.4-4.4 2.4-6.8 0L77.2 251.8c-36.5-37.2-43.9-107.6 7.3-150.7 38.9-32.7 98.9-27.8 136.5 10.5l35 35.7 35-35.7c37.8-38.5 97.8-43.2 136.5-10.6 51.1 43.1 43.5 113.9 7.3 150.8z"/>
    </svg>
    <svg viewBox="0 0 28 18" id="service3" xmlns="http://www.w3.org/2000/svg">
        <path d="M18.713 5.89V2.85A2.08 2.08 0 0 0 16.636.772H2.578A2.08 2.08 0 0 0 .5 2.849V15.15a2.08 2.08 0 0 0 2.078 2.078h14.058a2.08 2.08 0 0 0 2.078-2.078v-3.04l.685.274 7.662 3.065a.32.32 0 0 0 .298-.032l.28.414-.28-.414a.32.32 0 0 0 .141-.266V2.85a.32.32 0 0 0-.14-.266l-8.646 3.307zm0 0 .686-.273m-.686.274.686-.274m0 0 7.662-3.065m-7.662 3.065 7.662-3.065m0 0a.32.32 0 0 1 .298.032l-.298-.032zm-.887 11.851.685.274V3.323l-.685.274-7.146 2.858-.314.126v4.838l.314.126 7.146 2.858zm-9.538 2.184c.793 0 1.437-.644 1.437-1.437V2.85c0-.793-.644-1.438-1.437-1.438H2.578c-.793 0-1.437.645-1.437 1.437V15.15c0 .793.644 1.437 1.437 1.437h14.058z" stroke="#78A1CF"/>
    </svg>
    <svg viewBox="0 0 28 28" id="service4" xmlns="http://www.w3.org/2000/svg">
        <path d="m19.331 12.525-4.923 4.037-.817.67v-3.616a.02.02 0 0 0-.003-.004.081.081 0 0 0-.036-.025.137.137 0 0 0-.13.015l-5.91 4.846a.047.047 0 0 0-.012.013l.001.002a.047.047 0 0 0 .006.007.12.12 0 0 0 .084.03.123.123 0 0 0 .078-.025l4.923-4.037.817-.67v3.616l.003.004a.081.081 0 0 0 .036.025c.048.02.103.008.13-.015l5.753-4.873zm0 0a.125.125 0 0 1 .085-.025.114.114 0 0 1 .076.03m-.161-.005.162.005m0 0a.053.053 0 0 1 .006.007m-.006-.007.006.007m-.012.015-5.909 4.846 5.91-4.846zm0 0a.046.046 0 0 0 .013-.013m-.013.013.013-.013m-.001-.002v.002m0-.002v.002" stroke="#78A1CF"/>
        <path d="m15.678 5.636.843-.852L18.45 2.84a.095.095 0 0 0 0-.132.082.082 0 0 0-.118 0l-2.653 2.93zm0 0h7.103c1.497 0 2.719 1.227 2.719 2.75V23.75c0 1.523-1.222 2.75-2.72 2.75H5.22c-1.498 0-2.72-1.227-2.72-2.75V8.386c0-1.523 1.222-2.75 2.72-2.75h9.984l-1.138-.893-3.921-3.079a.095.095 0 0 1-.016-.13.082.082 0 0 1 .117-.016l4.86 3.816.35.275.314-.317 2.561-2.585-2.653 2.93zm7.102 20.682a2.559 2.559 0 0 0 2.55-2.568V8.386a2.559 2.559 0 0 0-2.55-2.568H5.22a2.559 2.559 0 0 0-2.55 2.568V23.75a2.559 2.559 0 0 0 2.55 2.568h17.56z" stroke="#78A1CF"/>
    </svg>
    <svg viewBox="0 0 28 28" id="service5" xmlns="http://www.w3.org/2000/svg">
        <path d="M5.75 21.804v-.26l-.213-.15C2.452 19.23.5 15.93.5 12.25.5 5.821 6.48.5 14 .5c7.521 0 13.5 5.321 13.5 11.75S21.521 24 14 24c-.865 0-1.71-.079-2.536-.215l-.182-.03-.159.096-5.373 3.26v-5.307zm.673 3.094-.012.898.77-.462 3.952-2.376c.919.184 1.876.292 2.867.292 6.967 0 12.75-4.856 12.75-11s-5.783-11-12.75-11-12.75 4.856-12.75 11c0 3.669 2.081 6.886 5.224 8.873l-.051 3.775zm3.202-9.523h8.75a.375.375 0 0 1 0 .75h-8.75a.375.375 0 0 1 0-.75zm-1.75-5.25h12.25a.375.375 0 0 1 0 .75H7.875a.375.375 0 0 1 0-.75z" stroke="#78A1CF"/>
    </svg>
    <svg viewBox="0 0 22 28" id="service6" xmlns="http://www.w3.org/2000/svg">
        <path d="m11.261 20.823-.261-.16-.262.16L.5 27.106V3.282C.5 1.849 2.014.5 4.125.5h13.75C19.986.5 21.5 1.85 21.5 3.282v23.824l-10.24-6.283zm8.989 4.61.75.434V3.782a2.65 2.65 0 0 0-.867-1.993c-.56-.506-1.343-.79-2.258-.79H4.125c-.623 0-1.368.137-1.976.474-.62.343-1.15.931-1.15 1.809v22.585l.752-.434L11 20.078l9.25 5.355z" stroke="#78A1CF"/>
    </svg>
    <svg viewBox="0 0 28 26" id="service7" xmlns="http://www.w3.org/2000/svg">
        <path d="M18.258 5.563A4.263 4.263 0 0 1 14 9.82a4.263 4.263 0 0 1-4.258-4.258A4.263 4.263 0 0 1 14 1.306a4.263 4.263 0 0 1 4.258 4.258zm-.64 0A3.62 3.62 0 0 0 14 1.945a3.62 3.62 0 0 0-3.617 3.617A3.62 3.62 0 0 0 14 9.18a3.62 3.62 0 0 0 3.617-3.617zm8.515 1.75a2.511 2.511 0 0 1-2.508 2.507 2.511 2.511 0 0 1-2.508-2.508 2.511 2.511 0 0 1 2.508-2.507 2.511 2.511 0 0 1 2.508 2.508zm-.64 0a1.869 1.869 0 0 0-3.734 0 1.867 1.867 0 1 0 3.733 0zm-6.218 7.357.507.553.316-.681a3.219 3.219 0 0 1 2.92-1.862h1.269c1.774 0 3.213 1.434 3.213 3.19v5.916c0 .637-.521 1.16-1.166 1.16h-5.418l-.039.456a1.418 1.418 0 0 1-1.41 1.293H8.533c-.738 0-1.347-.57-1.409-1.293l-.04-.457H1.609A1.107 1.107 0 0 1 .5 21.843V15.87c0-1.756 1.44-3.19 3.213-3.19h1.269c1.294 0 2.411.764 2.92 1.862l.316.68.507-.553a6.102 6.102 0 0 1 4.51-1.99h1.53a6.1 6.1 0 0 1 4.51 1.99zM7.521 16.61l.034-.086v-.654c0-1.412-1.16-2.55-2.573-2.55H3.713c-1.414 0-2.572 1.138-2.572 2.55v6.434h5.976v-.5c0-.51-.003-.955-.005-1.35-.013-2.039-.017-2.733.41-3.843zm13.362 5.194v.5h3.58c.672.001 1.108.002 1.39.001.284 0 .429-.002.5-.006a.526.526 0 0 0 .4-.192.5.5 0 0 0 .106-.37V15.87c0-1.412-1.158-2.55-2.572-2.55h-1.269c-1.414 0-2.573 1.138-2.573 2.55v.654l.034.087c.426 1.109.421 1.79.409 3.84-.003.395-.005.842-.005 1.353zm5.895-.29.005.007-.005-.008zm-7.31 2.54a.775.775 0 0 0 .774-.775v-4.482a5.483 5.483 0 0 0-5.478-5.478h-1.528a5.483 5.483 0 0 0-5.478 5.478v4.482c0 .428.347.775.774.775h10.936zm6.469-2zM6.883 7.313A2.511 2.511 0 0 1 4.375 9.82a2.511 2.511 0 0 1-2.508-2.508 2.511 2.511 0 0 1 2.508-2.507 2.511 2.511 0 0 1 2.508 2.508zm-.64 0a1.869 1.869 0 0 0-3.734 0 1.867 1.867 0 1 0 3.733 0z" stroke="#78A1CF"/>
    </svg>
    <svg viewBox="0 0 28 28" id="service8" xmlns="http://www.w3.org/2000/svg">
        <path d="M.5 14C.5 6.557 6.557.5 14 .5S27.5 6.557 27.5 14 21.443 27.5 14 27.5.5 21.443.5 14zm.75 0c0 7.03 5.72 12.75 12.75 12.75S26.75 21.03 26.75 14 21.03 1.25 14 1.25 1.25 6.97 1.25 14z" stroke="#78A1CF"/>
        <path d="M14.375 13.638v.207l.146.146 4.64 4.64-.53.53-5.006-5.006V5.75h.75v7.888z" stroke="#78A1CF"/>
    </svg>
    <svg viewBox="0 0 47 53" id="shield" xmlns="http://www.w3.org/2000/svg">
        <path d="M45.279 9.152C37.987 7.154 30.652 4.042 24.067.155a1.114 1.114 0 0 0-1.134 0c-6.774 4-13.713 6.942-21.212 8.997-.485.133-.82.573-.82 1.075V21.62c0 11.73 5.411 19.495 9.951 23.943C15.74 50.352 21.433 53 23.5 53s7.76-2.648 12.648-7.438c4.54-4.448 9.951-12.212 9.951-23.943V10.227c0-.502-.336-.942-.82-1.075zm-1.41 12.467c0 10.956-5.047 18.202-9.282 22.35-4.806 4.71-9.945 6.801-11.087 6.801-1.142 0-6.281-2.09-11.088-6.8C8.178 39.82 3.13 32.575 3.13 21.619V11.073c7.172-2.036 13.85-4.877 20.37-8.666 6.358 3.688 13.37 6.671 20.37 8.666V21.62z"/>
        <path d="M13.617 10.949a1.115 1.115 0 0 0-1.446-.629 90.651 90.651 0 0 1-6.075 2.147 1.115 1.115 0 0 0-.782 1.064v4.305a1.115 1.115 0 0 0 2.23 0v-3.49a92.945 92.945 0 0 0 5.445-1.951c.573-.226.854-.873.628-1.446zm2.118.211c.15 0 .301-.03.447-.093l.02-.01c.564-.247.818-.903.571-1.467a1.117 1.117 0 0 0-1.471-.572l-.018.008a1.115 1.115 0 0 0 .451 2.134zm21.047 24.79a1.115 1.115 0 0 0-1.543.323 27.132 27.132 0 0 1-3.204 4.002 28.484 28.484 0 0 1-3.198 2.845 1.115 1.115 0 0 0 1.352 1.773 30.737 30.737 0 0 0 3.45-3.069 29.34 29.34 0 0 0 3.467-4.332 1.115 1.115 0 0 0-.324-1.543zM26.25 44.868l-.064.038a1.115 1.115 0 1 0 1.116 1.93l.074-.044a1.115 1.115 0 1 0-1.127-1.924zM15.902 24.225a3.6 3.6 0 0 0-2.563-1.062 3.6 3.6 0 0 0-2.564 1.062 3.63 3.63 0 0 0 0 5.127l6.583 6.583a3.602 3.602 0 0 0 2.563 1.061c.969 0 1.88-.377 2.564-1.061l13.743-13.743a3.63 3.63 0 0 0 0-5.127 3.601 3.601 0 0 0-2.564-1.062c-.968 0-1.879.377-2.564 1.062L19.922 28.244l-4.02-4.02zm16.775-5.583c.264-.264.614-.409.987-.409s.724.145.987.409c.544.544.544 1.43 0 1.973L20.908 34.358a1.387 1.387 0 0 1-.987.408 1.39 1.39 0 0 1-.987-.408l-6.583-6.583a1.397 1.397 0 0 1 .987-2.382c.373 0 .724.145.987.408l4.808 4.808a1.115 1.115 0 0 0 1.576 0l11.968-11.967z"/>
    </svg>
    <svg viewBox="0 0 17 14" id="sort" xmlns="http://www.w3.org/2000/svg">
        <path d="M3.47.031v11.201l.928-.928 1.017 1.017-2.665 2.664-2.664-2.664 1.016-1.017.93.928V.032h1.437zm6.468 10.781v1.438H6.344v-1.438h3.594zm2.156-3.593v1.437h-5.75V7.22h5.75zm2.156-3.594v1.438H6.344V3.625h7.906zM16.407.031V1.47H6.344V.03h10.063z"/>
    </svg>
    <svg viewBox="0 0 13 12" id="star" xmlns="http://www.w3.org/2000/svg">
        <path d="M5.549.927c.3-.921 1.603-.921 1.902 0l.733 2.255a1 1 0 0 0 .95.691h2.372c.969 0 1.372 1.24.588 1.81l-1.918 1.393a1 1 0 0 0-.364 1.118l.733 2.256c.3.92-.755 1.687-1.539 1.118l-1.918-1.394a1 1 0 0 0-1.176 0l-1.918 1.394c-.784.569-1.838-.197-1.54-1.118l.734-2.256a1 1 0 0 0-.364-1.118L.906 5.682c-.784-.569-.381-1.809.588-1.809h2.371a1 1 0 0 0 .951-.69L5.55.926z"/>
    </svg>
    <svg viewBox="0 0 65 65" id="successful" xmlns="http://www.w3.org/2000/svg">
        <path d="M32.5 0C14.58 0 0 14.58 0 32.5S14.58 65 32.5 65 65 50.42 65 32.5 50.42 0 32.5 0zm18.662 27.01L30.744 47.428a4.565 4.565 0 0 1-3.25 1.346 4.565 4.565 0 0 1-3.25-1.346L13.838 37.022a4.566 4.566 0 0 1-1.346-3.25c0-1.228.478-2.382 1.346-3.25a4.565 4.565 0 0 1 3.25-1.346c1.227 0 2.382.478 3.25 1.346l7.156 7.156L44.66 20.51a4.566 4.566 0 0 1 3.25-1.346c1.228 0 2.382.478 3.25 1.346a4.601 4.601 0 0 1 0 6.5z"/>
    </svg>
    <svg viewBox="0 0 40 40" id="telegram" xmlns="http://www.w3.org/2000/svg">
        <path d="m28.029 14.17-10.143 8.291-.478.391a.516.516 0 0 0-.19.337l-.107.881-.294 2.478a.114.114 0 0 1-.186.097.114.114 0 0 1-.04-.077l-.826-2.477-.852-2.534a.51.51 0 0 1 .245-.605l10.555-6.05 1.986-1.136c.289-.168.584.195.33.404z"/>
        <path d="M20 0a20 20 0 1 0 0 40 20 20 0 0 0 0-40zm12.475 11.577L28.57 28.83c-.184.809-1.21 1.175-1.931.681l-5.896-4-3.002 2.839a1.032 1.032 0 0 1-1.664-.368L14.993 24.8l-1.084-3.182-5.811-1.59a.755.755 0 0 1-.066-1.457l22.45-8.09.413-.147c.87-.304 1.77.4 1.58 1.243z"/>
    </svg>
</svg>
